STARTFONT 2.1
FONT -FontForge-Bitstream Vera Sans-Book-R-Normal-Sans--36-350-75-75-P-216-ISO8859-1
SIZE 35 75 75
FONTBOUNDINGBOX 53 43 -7 -9
COMMENT "Generated by fontforge, http://fontforge.sourceforge.net"
COMMENT "Copyright (c) 2003 by Bitstream, Inc. All Rights Reserved."
STARTPROPERTIES 40
FOUNDRY "FontForge"
FAMILY_NAME "Bitstream Vera Sans"
WEIGHT_NAME "Book"
SLANT "R"
SETWIDTH_NAME "Normal"
ADD_STYLE_NAME "Sans"
PIXEL_SIZE 36
POINT_SIZE 350
RESOLUTION_X 75
RESOLUTION_Y 75
SPACING "P"
AVERAGE_WIDTH 216
CHARSET_REGISTRY "ISO8859"
CHARSET_ENCODING "1"
FONTNAME_REGISTRY ""
CHARSET_COLLECTIONS "ISO8859-9 ISOLatin1Encoding"
FONT_NAME "BitstreamVeraSans-Roman"
FACE_NAME "Bitstream Vera Sans"
COPYRIGHT "Copyright (c) 2003 by Bitstream, Inc. All Rights Reserved."
FONT_VERSION "Release 1.10"
FONT_ASCENT 27
FONT_DESCENT 9
UNDERLINE_POSITION -5
UNDERLINE_THICKNESS 3
X_HEIGHT 19
CAP_HEIGHT 25
RAW_ASCENT 759
RAW_DESCENT 240
NORM_SPACE 11
RELATIVE_WEIGHT 40
RELATIVE_SETWIDTH 50
SUPERSCRIPT_X 0
SUPERSCRIPT_Y 10
SUPERSCRIPT_SIZE 21
SUBSCRIPT_X 0
SUBSCRIPT_Y -7
SUBSCRIPT_SIZE 21
FIGURE_WIDTH 23
AVG_LOWERCASE_WIDTH 206
AVG_UPPERCASE_WIDTH 241
ENDPROPERTIES
CHARS 268
STARTCHAR space
ENCODING 32
SWIDTH 317 0
DWIDTH 11 0
BBX 1 1 0 0
BITMAP
00
ENDCHAR
STARTCHAR exclam
ENCODING 33
SWIDTH 400 0
DWIDTH 14 0
BBX 4 26 5 0
BITMAP
F0
F0
F0
F0
F0
F0
F0
F0
F0
F0
F0
F0
F0
F0
F0
F0
F0
F0
00
00
00
00
F0
F0
F0
F0
ENDCHAR
STARTCHAR quotedbl
ENCODING 34
SWIDTH 459 0
DWIDTH 17 0
BBX 10 10 3 16
BITMAP
E1C0
E1C0
E1C0
E1C0
E1C0
E1C0
E1C0
E1C0
E1C0
E1C0
ENDCHAR
STARTCHAR numbersign
ENCODING 35
SWIDTH 837 0
DWIDTH 30 0
BBX 25 26 3 0
BITMAP
00383800
00383800
00383800
00707000
00707000
00707000
00607000
3FFFFF80
3FFFFF80
3FFFFF80
00E0E000
01C1C000
01C1C000
01C1C000
01C1C000
03818000
FFFFFE00
FFFFFE00
FFFFFE00
07030000
07070000
07070000
07070000
0E0E0000
0E0E0000
0E0E0000
ENDCHAR
STARTCHAR dollar
ENCODING 36
SWIDTH 636 0
DWIDTH 23 0
BBX 17 32 3 -5
BITMAP
018000
018000
018000
018000
0FF800
3FFE00
7FFE00
798600
F18000
F18000
F18000
F98000
FF8000
7FF000
3FFC00
0FFE00
01FF00
019F80
018F80
018780
018780
018780
818F80
E19F00
FFFE00
7FFC00
0FF000
018000
018000
018000
018000
018000
ENDCHAR
STARTCHAR percent
ENCODING 37
SWIDTH 950 0
DWIDTH 34 0
BBX 30 26 2 0
BITMAP
1F800300
3FC00700
79E00600
70E00C00
E0701C00
E0701800
E0703000
E0707000
E0706000
E070C000
70E1C000
79E18000
3FC387E0
1F870FF0
00061E78
000E1C38
000C381C
0018381C
0038381C
0030381C
0060381C
00E0381C
00C01C38
01801E78
03800FF0
030007E0
ENDCHAR
STARTCHAR ampersand
ENCODING 38
SWIDTH 779 0
DWIDTH 28 0
BBX 25 26 2 0
BITMAP
01FC0000
07FF0000
0FFF0000
1F830000
1F000000
1E000000
1E000000
1E000000
1F000000
0F800000
0FC00000
1FE00000
3FF00F00
79F80F00
78FC0E00
F07E1E00
F03F1E00
F01FBC00
F00FF800
F007F000
F803F000
7C07F800
3F0FFC00
3FFF7E00
0FFC3F00
03F81F80
ENDCHAR
STARTCHAR quotesingle
ENCODING 39
SWIDTH 274 0
DWIDTH 10 0
BBX 3 10 3 16
BITMAP
E0
E0
E0
E0
E0
E0
E0
E0
E0
E0
ENDCHAR
STARTCHAR parenleft
ENCODING 40
SWIDTH 390 0
DWIDTH 14 0
BBX 8 32 3 -5
BITMAP
07
06
0E
1C
1C
3C
38
38
78
78
70
F0
F0
F0
F0
F0
F0
F0
F0
F0
F0
70
78
78
38
38
3C
1C
1C
0E
06
07
ENDCHAR
STARTCHAR parenright
ENCODING 41
SWIDTH 390 0
DWIDTH 14 0
BBX 8 32 3 -5
BITMAP
E0
60
70
38
38
3C
1C
1C
1E
1E
0E
0F
0F
0F
0F
0F
0F
0F
0F
0F
0F
0E
1E
1E
1C
1C
3C
38
38
70
60
E0
ENDCHAR
STARTCHAR asterisk
ENCODING 42
SWIDTH 500 0
DWIDTH 18 0
BBX 16 16 1 10
BITMAP
0180
0180
0180
4182
F18F
399C
1FF8
07E0
07E0
1FF0
399C
F18F
4182
0180
0180
0180
ENDCHAR
STARTCHAR plus
ENCODING 43
SWIDTH 837 0
DWIDTH 30 0
BBX 23 23 4 0
BITMAP
003800
003800
003800
003800
003800
003800
003800
003800
003800
003800
FFFFFE
FFFFFE
FFFFFE
003800
003800
003800
003800
003800
003800
003800
003800
003800
003800
ENDCHAR
STARTCHAR comma
ENCODING 44
SWIDTH 317 0
DWIDTH 11 0
BBX 5 9 3 -5
BITMAP
78
78
78
78
70
70
E0
E0
C0
ENDCHAR
STARTCHAR hyphen
ENCODING 45
SWIDTH 360 0
DWIDTH 13 0
BBX 9 3 2 8
BITMAP
FF80
FF80
FF80
ENDCHAR
STARTCHAR period
ENCODING 46
SWIDTH 317 0
DWIDTH 11 0
BBX 4 4 4 0
BITMAP
F0
F0
F0
F0
ENDCHAR
STARTCHAR slash
ENCODING 47
SWIDTH 336 0
DWIDTH 12 0
BBX 12 30 0 -4
BITMAP
0070
00F0
00E0
00E0
00E0
01C0
01C0
01C0
03C0
0380
0380
0780
0700
0700
0700
0E00
0E00
0E00
1E00
1C00
1C00
3C00
3800
3800
3800
7000
7000
7000
F000
E000
ENDCHAR
STARTCHAR zero
ENCODING 48
SWIDTH 636 0
DWIDTH 23 0
BBX 18 26 2 0
BITMAP
03F000
0FFC00
1FFE00
3E1F00
3C0F00
780780
780780
780780
F003C0
F003C0
F003C0
F003C0
F003C0
F003C0
F003C0
F003C0
F003C0
F003C0
780780
780780
780780
3C0F00
3E1F00
1FFE00
0FFC00
03F000
ENDCHAR
STARTCHAR one
ENCODING 49
SWIDTH 636 0
DWIDTH 23 0
BBX 16 26 4 0
BITMAP
1FC0
FFC0
FFC0
E3C0
03C0
03C0
03C0
03C0
03C0
03C0
03C0
03C0
03C0
03C0
03C0
03C0
03C0
03C0
03C0
03C0
03C0
03C0
03C0
FFFF
FFFF
FFFF
ENDCHAR
STARTCHAR two
ENCODING 50
SWIDTH 636 0
DWIDTH 23 0
BBX 17 26 3 0
BITMAP
1FF000
FFFC00
FFFE00
F03F00
800F00
000F80
000780
000780
000780
000780
000F80
001F00
001F00
003E00
007C00
00F800
01F000
03E000
07C000
0F8000
1F0000
3E0000
FC0000
FFFF80
FFFF80
FFFF80
ENDCHAR
STARTCHAR three
ENCODING 51
SWIDTH 636 0
DWIDTH 23 0
BBX 17 26 3 0
BITMAP
1FE000
7FF800
7FFC00
603E00
001F00
000F00
000F00
000F00
000F00
001E00
003E00
07F800
07F000
07FC00
003E00
000F00
000780
000780
000780
000780
000F80
000F00
C03F00
FFFE00
FFFC00
3FE000
ENDCHAR
STARTCHAR four
ENCODING 52
SWIDTH 636 0
DWIDTH 23 0
BBX 19 26 2 0
BITMAP
003E00
003E00
007E00
00FE00
00FE00
01DE00
039E00
039E00
071E00
071E00
0E1E00
1C1E00
1C1E00
381E00
781E00
701E00
E01E00
FFFFE0
FFFFE0
FFFFE0
001E00
001E00
001E00
001E00
001E00
001E00
ENDCHAR
STARTCHAR five
ENCODING 53
SWIDTH 636 0
DWIDTH 23 0
BBX 17 26 3 0
BITMAP
7FFE00
7FFE00
7FFE00
780000
780000
780000
780000
780000
780000
7FE000
7FFC00
7FFE00
603F00
001F00
000F80
000780
000780
000780
000780
000780
000F80
001F00
C03F00
FFFE00
FFF800
3FE000
ENDCHAR
STARTCHAR six
ENCODING 54
SWIDTH 636 0
DWIDTH 23 0
BBX 18 26 2 0
BITMAP
01FC00
07FF00
0FFF00
1F0300
3E0000
3C0000
780000
780000
F80000
F1F800
F3FE00
F7FF00
FE1F80
F80780
F807C0
F003C0
F003C0
F003C0
7003C0
7003C0
7807C0
380780
3E1F80
1FFF00
0FFE00
03F800
ENDCHAR
STARTCHAR seven
ENCODING 55
SWIDTH 636 0
DWIDTH 23 0
BBX 17 26 3 0
BITMAP
FFFF80
FFFF80
FFFF80
000F00
000F00
001F00
001E00
001E00
003E00
003C00
003C00
007800
007800
00F800
00F000
00F000
01F000
01E000
01E000
03E000
03C000
03C000
07C000
078000
078000
0F0000
ENDCHAR
STARTCHAR eight
ENCODING 56
SWIDTH 636 0
DWIDTH 23 0
BBX 18 26 2 0
BITMAP
03F800
0FFC00
3FFF00
3E1F00
7C0F80
780780
780780
780780
780780
3C0F00
3E1E00
0FFC00
03F000
1FFE00
3C1F00
780780
F003C0
F003C0
F003C0
F003C0
F003C0
F807C0
7C0F80
3FFF00
1FFE00
07F800
ENDCHAR
STARTCHAR nine
ENCODING 57
SWIDTH 636 0
DWIDTH 23 0
BBX 18 26 2 0
BITMAP
07F000
1FFC00
3FFE00
7E1F00
780700
F80780
F00380
F00380
F003C0
F003C0
F003C0
F807C0
7807C0
7E1FC0
3FFBC0
1FF3C0
07E3C0
0007C0
000780
000780
000F00
001F00
303E00
3FFC00
3FF800
0FE000
ENDCHAR
STARTCHAR colon
ENCODING 58
SWIDTH 336 0
DWIDTH 12 0
BBX 4 19 4 0
BITMAP
F0
F0
F0
F0
00
00
00
00
00
00
00
00
00
00
00
F0
F0
F0
F0
ENDCHAR
STARTCHAR semicolon
ENCODING 59
SWIDTH 336 0
DWIDTH 12 0
BBX 5 24 3 -5
BITMAP
78
78
78
78
00
00
00
00
00
00
00
00
00
00
00
78
78
78
78
70
70
E0
E0
C0
ENDCHAR
STARTCHAR less
ENCODING 60
SWIDTH 837 0
DWIDTH 30 0
BBX 23 19 4 2
BITMAP
000002
00001E
0000FE
0007FC
003FE0
01FF00
0FFC00
3FE000
FF0000
F80000
FF0000
3FE000
0FFC00
01FF00
003FE0
0007FC
0000FE
00001E
000002
ENDCHAR
STARTCHAR equal
ENCODING 61
SWIDTH 837 0
DWIDTH 30 0
BBX 23 10 4 6
BITMAP
FFFFFE
FFFFFE
FFFFFE
000000
000000
000000
000000
FFFFFE
FFFFFE
FFFFFE
ENDCHAR
STARTCHAR greater
ENCODING 62
SWIDTH 837 0
DWIDTH 30 0
BBX 23 19 4 2
BITMAP
800000
F00000
FE0000
7FC000
0FF800
01FF00
007FE0
000FF8
0001FE
00003E
0001FE
000FF8
007FE0
01FF00
0FF800
7FC000
FE0000
F00000
800000
ENDCHAR
STARTCHAR question
ENCODING 63
SWIDTH 530 0
DWIDTH 19 0
BBX 14 26 3 0
BITMAP
1FC0
7FF0
FFF8
E0F8
807C
003C
003C
003C
0078
00F0
01E0
03C0
0780
0780
0F00
0F00
0F00
0F00
0F00
0000
0000
0000
0F00
0F00
0F00
0F00
ENDCHAR
STARTCHAR at
ENCODING 64
SWIDTH 1000 0
DWIDTH 36 0
BBX 32 32 2 -7
BITMAP
000FF800
007FFF00
00FFFF80
03F80FE0
07C001F0
0F000078
1E00003C
3C00001C
380FC71E
781FF70E
703FFF0F
707C3F07
E0700F07
E0F00F07
E0E00707
E0E00707
E0E00707
E0E0070E
E0E00F0E
E0700F1C
707C3F3C
703FFFF8
781FF7E0
380FC780
3C000000
1E000000
0F000080
07C001C0
03F80FC0
01FFFF80
007FFE00
000FF000
ENDCHAR
STARTCHAR A
ENCODING 65
SWIDTH 684 0
DWIDTH 25 0
BBX 24 26 0 0
BITMAP
003C00
007E00
007E00
007E00
00FF00
00FF00
01FF80
01E780
01E780
03E7C0
03C3C0
03C3C0
0781E0
0781E0
0F81F0
0F00F0
0FFFF0
1FFFF8
1FFFF8
3E0078
3C003C
3C003C
7C003E
78001E
78001E
F0000F
ENDCHAR
STARTCHAR B
ENCODING 66
SWIDTH 686 0
DWIDTH 25 0
BBX 19 26 3 0
BITMAP
FFF800
FFFE00
FFFF80
F00F80
F007C0
F003C0
F003C0
F003C0
F003C0
F00780
F00F80
FFFF00
FFFC00
FFFF00
F00780
F003C0
F001E0
F001E0
F001E0
F001E0
F001E0
F003E0
F007C0
FFFF80
FFFF00
FFFC00
ENDCHAR
STARTCHAR C
ENCODING 67
SWIDTH 698 0
DWIDTH 25 0
BBX 21 26 2 0
BITMAP
007F00
03FFE0
0FFFF0
1FC0F8
3F0038
3C0018
7C0000
780000
780000
F00000
F00000
F00000
F00000
F00000
F00000
F00000
F00000
780000
780000
7C0000
3C0018
3F0038
1FC0F8
0FFFF0
03FFE0
00FF00
ENDCHAR
STARTCHAR D
ENCODING 68
SWIDTH 770 0
DWIDTH 28 0
BBX 22 26 3 0
BITMAP
FFF800
FFFF00
FFFFC0
F00FE0
F003F0
F000F0
F000F8
F00078
F0007C
F0003C
F0003C
F0003C
F0003C
F0003C
F0003C
F0003C
F0003C
F00078
F00078
F000F8
F000F0
F003F0
F00FE0
FFFFC0
FFFF00
FFF800
ENDCHAR
STARTCHAR E
ENCODING 69
SWIDTH 631 0
DWIDTH 23 0
BBX 17 26 3 0
BITMAP
FFFF80
FFFF80
FFFF80
F00000
F00000
F00000
F00000
F00000
F00000
F00000
F00000
FFFF00
FFFF00
FFFF00
F00000
F00000
F00000
F00000
F00000
F00000
F00000
F00000
F00000
FFFF80
FFFF80
FFFF80
ENDCHAR
STARTCHAR F
ENCODING 70
SWIDTH 575 0
DWIDTH 21 0
BBX 15 26 3 0
BITMAP
FFFE
FFFE
FFFE
F000
F000
F000
F000
F000
F000
F000
FFFC
FFFC
FFFC
F000
F000
F000
F000
F000
F000
F000
F000
F000
F000
F000
F000
F000
ENDCHAR
STARTCHAR G
ENCODING 71
SWIDTH 774 0
DWIDTH 28 0
BBX 23 26 2 0
BITMAP
007F80
03FFF0
0FFFF8
1FC07C
3F001C
3C000C
7C0004
780000
780000
F00000
F00000
F00000
F007FE
F007FE
F007FE
F0001E
F0001E
78001E
78001E
7C001E
3C001E
1E001E
1FC07E
07FFFC
03FFF0
007F80
ENDCHAR
STARTCHAR H
ENCODING 72
SWIDTH 751 0
DWIDTH 27 0
BBX 20 26 3 0
BITMAP
F000F0
F000F0
F000F0
F000F0
F000F0
F000F0
F000F0
F000F0
F000F0
F000F0
F000F0
FFFFF0
FFFFF0
FFFFF0
F000F0
F000F0
F000F0
F000F0
F000F0
F000F0
F000F0
F000F0
F000F0
F000F0
F000F0
F000F0
ENDCHAR
STARTCHAR I
ENCODING 73
SWIDTH 294 0
DWIDTH 11 0
BBX 4 26 3 0
BITMAP
F0
F0
F0
F0
F0
F0
F0
F0
F0
F0
F0
F0
F0
F0
F0
F0
F0
F0
F0
F0
F0
F0
F0
F0
F0
F0
ENDCHAR
STARTCHAR J
ENCODING 74
SWIDTH 294 0
DWIDTH 11 0
BBX 9 33 -2 -7
BITMAP
0780
0780
0780
0780
0780
0780
0780
0780
0780
0780
0780
0780
0780
0780
0780
0780
0780
0780
0780
0780
0780
0780
0780
0780
0780
0780
0780
0780
0F00
1F00
FE00
FC00
F800
ENDCHAR
STARTCHAR K
ENCODING 75
SWIDTH 655 0
DWIDTH 24 0
BBX 21 26 3 0
BITMAP
F003E0
F007C0
F00F80
F03F00
F07E00
F0FC00
F1F800
F3F000
F7E000
FFC000
FF8000
FF0000
FF0000
FF8000
FFC000
F7E000
F3F000
F1F800
F0FC00
F07E00
F03F00
F01F80
F00FC0
F007E0
F003F0
F001F8
ENDCHAR
STARTCHAR L
ENCODING 76
SWIDTH 557 0
DWIDTH 20 0
BBX 16 26 3 0
BITMAP
F000
F000
F000
F000
F000
F000
F000
F000
F000
F000
F000
F000
F000
F000
F000
F000
F000
F000
F000
F000
F000
F000
F000
FFFF
FFFF
FFFF
ENDCHAR
STARTCHAR M
ENCODING 77
SWIDTH 862 0
DWIDTH 31 0
BBX 24 26 3 0
BITMAP
FE007F
FF00FF
FF00FF
FF00FF
FF81FF
F781EF
F781EF
F3C3CF
F3C3CF
F3C7CF
F1E78F
F1E78F
F1FF8F
F0FF0F
F0FF0F
F0FF0F
F07E0F
F07E0F
F07E0F
F03C0F
F03C0F
F0000F
F0000F
F0000F
F0000F
F0000F
ENDCHAR
STARTCHAR N
ENCODING 78
SWIDTH 748 0
DWIDTH 27 0
BBX 20 26 3 0
BITMAP
FC00F0
FC00F0
FE00F0
FE00F0
FF00F0
FF00F0
FF80F0
F780F0
F7C0F0
F3C0F0
F3E0F0
F1F0F0
F1F0F0
F0F8F0
F078F0
F07CF0
F03CF0
F03EF0
F01EF0
F01FF0
F00FF0
F00FF0
F007F0
F007F0
F003F0
F003F0
ENDCHAR
STARTCHAR O
ENCODING 79
SWIDTH 787 0
DWIDTH 28 0
BBX 24 26 2 0
BITMAP
00FF00
03FFC0
0FFFF0
1F81F8
3E007C
3C003C
7C003E
78001E
78001E
F0000F
F0000F
F0000F
F0000F
F0000F
F0000F
F0000F
F0000F
78001E
78001E
7C003E
3C003C
3E007C
1F81F8
0FFFF0
03FFC0
00FF00
ENDCHAR
STARTCHAR P
ENCODING 80
SWIDTH 603 0
DWIDTH 22 0
BBX 17 26 3 0
BITMAP
FFF000
FFFC00
FFFE00
F01F00
F00F00
F00F80
F00780
F00780
F00780
F00780
F00780
F00F00
F01F00
FFFE00
FFFC00
FFF000
F00000
F00000
F00000
F00000
F00000
F00000
F00000
F00000
F00000
F00000
ENDCHAR
STARTCHAR Q
ENCODING 81
SWIDTH 787 0
DWIDTH 28 0
BBX 24 31 2 -5
BITMAP
00FF00
03FFC0
0FFFF0
1F81F8
3E007C
3C003C
7C003E
78001E
78001E
F0000F
F0000F
F0000F
F0000F
F0000F
F0000F
F0000F
F0000F
78001E
78001E
7C003E
3C003C
3E0078
1F81F0
0FFFE0
03FFC0
00FF80
0003C0
0001E0
0000E0
0000F0
000078
ENDCHAR
STARTCHAR R
ENCODING 82
SWIDTH 694 0
DWIDTH 25 0
BBX 21 26 3 0
BITMAP
FFF000
FFFC00
FFFE00
F01F00
F00F80
F00780
F00780
F00780
F00780
F00780
F00F00
F01F00
FFFE00
FFF800
FFFC00
F07E00
F01E00
F01F00
F00F80
F00780
F007C0
F003C0
F003E0
F001F0
F000F0
F000F8
ENDCHAR
STARTCHAR S
ENCODING 83
SWIDTH 634 0
DWIDTH 23 0
BBX 18 26 2 0
BITMAP
07FC00
1FFF00
3FFF00
7C0300
F80000
F00000
F00000
F00000
F80000
FE0000
7FE000
3FFC00
1FFF00
03FF80
003F80
0007C0
0007C0
0003C0
0003C0
0003C0
0003C0
800780
F01F80
FFFF00
FFFE00
3FF800
ENDCHAR
STARTCHAR T
ENCODING 84
SWIDTH 610 0
DWIDTH 22 0
BBX 22 26 0 0
BITMAP
FFFFFC
FFFFFC
FFFFFC
007800
007800
007800
007800
007800
007800
007800
007800
007800
007800
007800
007800
007800
007800
007800
007800
007800
007800
007800
007800
007800
007800
007800
ENDCHAR
STARTCHAR U
ENCODING 85
SWIDTH 731 0
DWIDTH 26 0
BBX 20 26 4 0
BITMAP
F000F0
F000F0
F000F0
F000F0
F000F0
F000F0
F000F0
F000F0
F000F0
F000F0
F000F0
F000F0
F000F0
F000F0
F000F0
F000F0
F000F0
F000F0
F000F0
F801F0
7801E0
7C03E0
3E07C0
1FFF80
0FFF00
03FC00
ENDCHAR
STARTCHAR V
ENCODING 86
SWIDTH 684 0
DWIDTH 25 0
BBX 24 26 0 0
BITMAP
F0001F
78001E
78001E
7C003E
3C003C
3C003C
1E007C
1E0078
1F00F8
0F00F0
0F00F0
0F81F0
0781E0
0781E0
03C3C0
03C3C0
03E7C0
01E780
01E780
00FF80
00FF00
00FF00
007E00
007E00
007E00
003C00
ENDCHAR
STARTCHAR W
ENCODING 87
SWIDTH 988 0
DWIDTH 36 0
BBX 33 26 1 0
BITMAP
F003E00780
F803E00F80
7803E00F00
7807F00F00
7807700F00
7C07701F00
3C07701E00
3C0F381E00
3C0E381E00
3E0E383E00
1E0E383C00
1E1E3C3C00
1E1C1C3C00
1F1C1C7C00
0F1C1C7800
0F3C1E7800
0F380E7800
0FB80EF800
07B80EF000
07F80FF000
07F007F000
07F007F000
03F007E000
03F007E000
03E003E000
03E003E000
ENDCHAR
STARTCHAR X
ENCODING 88
SWIDTH 685 0
DWIDTH 25 0
BBX 22 26 1 0
BITMAP
7C00F8
3E01F0
1E01E0
1F03E0
0F87C0
078780
07CF80
03FF00
01FE00
01FE00
00FC00
00FC00
007800
00FC00
01FC00
01FE00
03FF00
07DF00
07CF80
0F87C0
0F07C0
1F03E0
3E01F0
3C01F0
7C00F8
F8007C
ENDCHAR
STARTCHAR Y
ENCODING 89
SWIDTH 610 0
DWIDTH 22 0
BBX 22 26 0 0
BITMAP
F8007C
7C00F8
3C00F0
3E01F0
1F03E0
0F03C0
0F87C0
07CF80
03CF00
03FF00
01FE00
00FC00
00FC00
007800
007800
007800
007800
007800
007800
007800
007800
007800
007800
007800
007800
007800
ENDCHAR
STARTCHAR Z
ENCODING 90
SWIDTH 685 0
DWIDTH 25 0
BBX 21 26 2 0
BITMAP
FFFFF0
FFFFF0
FFFFF0
0003E0
0003E0
0007C0
000F80
001F00
001F00
003E00
007C00
007C00
00F800
01F000
03E000
03E000
07C000
0F8000
1F0000
1F0000
3E0000
7C0000
7C0000
FFFFF8
FFFFF8
FFFFF8
ENDCHAR
STARTCHAR bracketleft
ENCODING 91
SWIDTH 390 0
DWIDTH 14 0
BBX 8 32 3 -5
BITMAP
FF
FF
FF
F0
F0
F0
F0
F0
F0
F0
F0
F0
F0
F0
F0
F0
F0
F0
F0
F0
F0
F0
F0
F0
F0
F0
F0
F0
F0
FF
FF
FF
ENDCHAR
STARTCHAR backslash
ENCODING 92
SWIDTH 336 0
DWIDTH 12 0
BBX 12 30 0 -4
BITMAP
E000
F000
7000
7000
7000
3800
3800
3800
1C00
1C00
1C00
1E00
0E00
0E00
0E00
0700
0700
0700
0780
0380
0380
0380
01C0
01C0
01C0
00E0
00E0
00E0
00F0
0070
ENDCHAR
STARTCHAR bracketright
ENCODING 93
SWIDTH 390 0
DWIDTH 14 0
BBX 8 32 3 -5
BITMAP
FF
FF
FF
0F
0F
0F
0F
0F
0F
0F
0F
0F
0F
0F
0F
0F
0F
0F
0F
0F
0F
0F
0F
0F
0F
0F
0F
0F
0F
FF
FF
FF
ENDCHAR
STARTCHAR asciicircum
ENCODING 94
SWIDTH 837 0
DWIDTH 30 0
BBX 23 10 4 16
BITMAP
007C00
00FE00
01FF00
03EF80
07C7C0
0F83E0
1F01F0
3C0078
78003C
F0001E
ENDCHAR
STARTCHAR underscore
ENCODING 95
SWIDTH 500 0
DWIDTH 18 0
BBX 18 3 0 -8
BITMAP
FFFFC0
FFFFC0
FFFFC0
ENDCHAR
STARTCHAR grave
ENCODING 96
SWIDTH 500 0
DWIDTH 18 0
BBX 8 7 3 22
BITMAP
F0
70
38
1C
1C
0E
07
ENDCHAR
STARTCHAR a
ENCODING 97
SWIDTH 612 0
DWIDTH 22 0
BBX 17 20 2 0
BITMAP
07F000
3FFC00
7FFE00
703F00
400F00
000F80
000780
000780
07FF80
3FFF80
7FFF80
7C0780
F00780
F00780
F00F80
F00F80
F83F80
7FF780
3FE780
0F8780
ENDCHAR
STARTCHAR b
ENCODING 98
SWIDTH 634 0
DWIDTH 23 0
BBX 18 27 3 0
BITMAP
F00000
F00000
F00000
F00000
F00000
F00000
F00000
F1F800
F7FE00
FFFF00
FE1F00
FC0F80
F80780
F007C0
F003C0
F003C0
F003C0
F003C0
F003C0
F003C0
F007C0
F80780
FC0F80
FE1F00
FFFF00
F7FE00
F1F800
ENDCHAR
STARTCHAR c
ENCODING 99
SWIDTH 549 0
DWIDTH 20 0
BBX 16 20 2 0
BITMAP
01F8
0FFE
1FFF
3F07
7C01
7800
F800
F000
F000
F000
F000
F000
F000
F800
7800
7C01
3F07
1FFF
0FFE
03F8
ENDCHAR
STARTCHAR d
ENCODING 100
SWIDTH 634 0
DWIDTH 23 0
BBX 18 27 2 0
BITMAP
0003C0
0003C0
0003C0
0003C0
0003C0
0003C0
0003C0
07E3C0
1FFBC0
3FFFC0
3E1FC0
7C0FC0
7807C0
F007C0
F003C0
F003C0
F003C0
F003C0
F003C0
F003C0
F007C0
7807C0
7C0FC0
3E1FC0
3FFFC0
1FFBC0
07E3C0
ENDCHAR
STARTCHAR e
ENCODING 101
SWIDTH 615 0
DWIDTH 22 0
BBX 18 20 2 0
BITMAP
03F800
0FFE00
1FFF00
3E0F80
7C0780
780780
F003C0
F003C0
FFFFC0
FFFFC0
FFFFC0
F00000
F00000
F80000
780000
7C0080
3F0380
1FFF80
0FFF00
03FC00
ENDCHAR
STARTCHAR f
ENCODING 102
SWIDTH 352 0
DWIDTH 13 0
BBX 13 27 1 0
BITMAP
03F8
07F8
0FF8
1F00
1E00
1E00
1E00
FFF0
FFF0
FFF0
1E00
1E00
1E00
1E00
1E00
1E00
1E00
1E00
1E00
1E00
1E00
1E00
1E00
1E00
1E00
1E00
1E00
ENDCHAR
STARTCHAR g
ENCODING 103
SWIDTH 634 0
DWIDTH 23 0
BBX 18 27 2 -7
BITMAP
07E3C0
1FFBC0
3FFFC0
3E1FC0
7C0FC0
7807C0
F007C0
F003C0
F003C0
F003C0
F003C0
F003C0
F003C0
F007C0
7807C0
7C0FC0
3E1FC0
3FFFC0
1FFBC0
07E3C0
0003C0
000780
200F80
381F80
3FFF00
1FFE00
07F000
ENDCHAR
STARTCHAR h
ENCODING 104
SWIDTH 633 0
DWIDTH 23 0
BBX 16 27 3 0
BITMAP
F000
F000
F000
F000
F000
F000
F000
F1F0
F3FC
F7FE
FE3E
F81E
F80F
F00F
F00F
F00F
F00F
F00F
F00F
F00F
F00F
F00F
F00F
F00F
F00F
F00F
F00F
ENDCHAR
STARTCHAR i
ENCODING 105
SWIDTH 277 0
DWIDTH 10 0
BBX 4 27 3 0
BITMAP
F0
F0
F0
F0
00
00
00
F0
F0
F0
F0
F0
F0
F0
F0
F0
F0
F0
F0
F0
F0
F0
F0
F0
F0
F0
F0
ENDCHAR
STARTCHAR j
ENCODING 106
SWIDTH 277 0
DWIDTH 10 0
BBX 8 34 -1 -7
BITMAP
0F
0F
0F
0F
00
00
00
0F
0F
0F
0F
0F
0F
0F
0F
0F
0F
0F
0F
0F
0F
0F
0F
0F
0F
0F
0F
0F
0F
0F
1E
FE
FC
F8
ENDCHAR
STARTCHAR k
ENCODING 107
SWIDTH 579 0
DWIDTH 21 0
BBX 17 27 3 0
BITMAP
F00000
F00000
F00000
F00000
F00000
F00000
F00000
F01F00
F03E00
F07C00
F1F800
F3F000
F7E000
FFC000
FF8000
FF0000
FE0000
FF0000
FF8000
F7C000
F3E000
F3F000
F1F800
F0FC00
F07E00
F03F00
F01F80
ENDCHAR
STARTCHAR l
ENCODING 108
SWIDTH 277 0
DWIDTH 10 0
BBX 4 27 3 0
BITMAP
F0
F0
F0
F0
F0
F0
F0
F0
F0
F0
F0
F0
F0
F0
F0
F0
F0
F0
F0
F0
F0
F0
F0
F0
F0
F0
F0
ENDCHAR
STARTCHAR m
ENCODING 109
SWIDTH 974 0
DWIDTH 35 0
BBX 28 20 3 0
BITMAP
F1F01F00
F3FC3FC0
F7FC7FE0
FE3EE3E0
F81F81E0
F80F80F0
F00F00F0
F00F00F0
F00F00F0
F00F00F0
F00F00F0
F00F00F0
F00F00F0
F00F00F0
F00F00F0
F00F00F0
F00F00F0
F00F00F0
F00F00F0
F00F00F0
ENDCHAR
STARTCHAR n
ENCODING 110
SWIDTH 633 0
DWIDTH 23 0
BBX 16 20 3 0
BITMAP
F1F0
F3FC
F7FE
FE3E
F81E
F80F
F00F
F00F
F00F
F00F
F00F
F00F
F00F
F00F
F00F
F00F
F00F
F00F
F00F
F00F
ENDCHAR
STARTCHAR o
ENCODING 111
SWIDTH 611 0
DWIDTH 22 0
BBX 18 20 2 0
BITMAP
03F000
0FFC00
1FFE00
3E1F00
7C0F80
780780
F807C0
F003C0
F003C0
F003C0
F003C0
F003C0
F003C0
F007C0
780780
7C0F80
3E1F00
1FFE00
0FFC00
03F000
ENDCHAR
STARTCHAR p
ENCODING 112
SWIDTH 634 0
DWIDTH 23 0
BBX 18 27 3 -7
BITMAP
F1F800
F7FE00
FFFF00
FE1F00
FC0F80
F80780
F007C0
F003C0
F003C0
F003C0
F003C0
F003C0
F003C0
F007C0
F80780
FC0F80
FE1F00
FFFF00
F7FE00
F1F800
F00000
F00000
F00000
F00000
F00000
F00000
F00000
ENDCHAR
STARTCHAR q
ENCODING 113
SWIDTH 634 0
DWIDTH 23 0
BBX 18 27 2 -7
BITMAP
07E3C0
1FFBC0
3FFFC0
3E1FC0
7C0FC0
7807C0
F007C0
F003C0
F003C0
F003C0
F003C0
F003C0
F003C0
F007C0
7807C0
7C0FC0
3E1FC0
3FFFC0
1FFBC0
07E3C0
0003C0
0003C0
0003C0
0003C0
0003C0
0003C0
0003C0
ENDCHAR
STARTCHAR r
ENCODING 114
SWIDTH 411 0
DWIDTH 15 0
BBX 12 20 3 0
BITMAP
F0F0
F3F0
F7F0
FE00
FC00
F800
F800
F000
F000
F000
F000
F000
F000
F000
F000
F000
F000
F000
F000
F000
ENDCHAR
STARTCHAR s
ENCODING 115
SWIDTH 520 0
DWIDTH 19 0
BBX 15 20 2 0
BITMAP
0FF0
3FFC
7FFC
FC0C
F000
F000
F000
FC00
7FC0
1FF0
03FC
007C
001E
001E
001E
801E
E07C
FFFC
7FF8
0FE0
ENDCHAR
STARTCHAR t
ENCODING 116
SWIDTH 392 0
DWIDTH 14 0
BBX 13 26 1 0
BITMAP
3C00
3C00
3C00
3C00
3C00
3C00
FFF8
FFF8
FFF8
3C00
3C00
3C00
3C00
3C00
3C00
3C00
3C00
3C00
3C00
3C00
3C00
3C00
3E00
1FF8
0FF8
07F8
ENDCHAR
STARTCHAR u
ENCODING 117
SWIDTH 633 0
DWIDTH 23 0
BBX 16 20 3 0
BITMAP
F00F
F00F
F00F
F00F
F00F
F00F
F00F
F00F
F00F
F00F
F00F
F00F
F00F
F00F
F01F
F81F
7C7F
7FEF
3FCF
0F8F
ENDCHAR
STARTCHAR v
ENCODING 118
SWIDTH 591 0
DWIDTH 21 0
BBX 19 20 1 0
BITMAP
F001E0
7803C0
7803C0
7C07C0
3C0780
3C0780
3E0F80
1E0F00
1E0F00
1F1F00
0F1E00
0F1E00
07BC00
07BC00
07FC00
03F800
03F800
03F800
01F000
01F000
ENDCHAR
STARTCHAR w
ENCODING 119
SWIDTH 817 0
DWIDTH 29 0
BBX 26 20 2 0
BITMAP
F01E03C0
F83F07C0
783F0780
783F0780
783F0780
7C7F8F80
3C738F00
3C738F00
3C738F00
3EF1DF00
1EE1DE00
1EE1DE00
1EE1DE00
1FC0FE00
0FC0FC00
0FC0FC00
0FC0FC00
0F807C00
07807800
07807800
ENDCHAR
STARTCHAR x
ENCODING 120
SWIDTH 591 0
DWIDTH 21 0
BBX 19 20 1 0
BITMAP
7C03E0
3E07C0
1F0F80
0F9F00
0F9F00
07FE00
03FC00
03FC00
01F800
00F000
01F000
03F800
03FC00
07FE00
0FBE00
1F1F00
1F0F80
3E0F80
7C07C0
F803E0
ENDCHAR
STARTCHAR y
ENCODING 121
SWIDTH 591 0
DWIDTH 21 0
BBX 19 27 1 -7
BITMAP
F803E0
7803C0
7803C0
7C07C0
3C0780
3E0F80
1E0F00
1E0F00
0F1F00
0F1E00
0FBE00
07BC00
07BC00
03FC00
03F800
03F800
01F000
01F000
01F000
01E000
03E000
03C000
07C000
07C000
3F8000
3F0000
3E0000
ENDCHAR
STARTCHAR z
ENCODING 122
SWIDTH 524 0
DWIDTH 19 0
BBX 16 20 2 0
BITMAP
FFFF
FFFF
FFFF
001F
003E
007C
00F8
01F8
01F0
03E0
07C0
0FC0
0F80
1F00
3E00
7E00
FC00
FFFF
FFFF
FFFF
ENDCHAR
STARTCHAR braceleft
ENCODING 123
SWIDTH 636 0
DWIDTH 23 0
BBX 14 33 5 -6
BITMAP
00FC
03FC
03FC
07C0
0780
0780
0780
0780
0780
0780
0780
0780
0780
0F80
0F00
FE00
F800
FE00
1F00
0F80
0780
0780
0780
0780
0780
0780
0780
0780
0780
07C0
03FC
03FC
00FC
ENDCHAR
STARTCHAR bar
ENCODING 124
SWIDTH 336 0
DWIDTH 12 0
BBX 3 36 5 -9
BITMAP
E0
E0
E0
E0
E0
E0
E0
E0
E0
E0
E0
E0
E0
E0
E0
E0
E0
E0
E0
E0
E0
E0
E0
E0
E0
E0
E0
E0
E0
E0
E0
E0
E0
E0
E0
E0
ENDCHAR
STARTCHAR braceright
ENCODING 125
SWIDTH 636 0
DWIDTH 23 0
BBX 14 33 5 -6
BITMAP
FC00
FF00
FF00
0F80
0780
0780
0780
0780
0780
0780
0780
0780
0780
0780
03C0
01FC
007C
01FC
03C0
07C0
0780
0780
0780
0780
0780
0780
0780
0780
0780
0F80
FF00
FF00
FC00
ENDCHAR
STARTCHAR asciitilde
ENCODING 126
SWIDTH 837 0
DWIDTH 30 0
BBX 23 5 4 9
BITMAP
0FC002
7FF81E
FFFFFE
F07FFC
C007E0
ENDCHAR
STARTCHAR nonbreakingspace
ENCODING 160
SWIDTH 636 0
DWIDTH 23 0
BBX 1 1 0 0
BITMAP
00
ENDCHAR
STARTCHAR exclamdown
ENCODING 161
SWIDTH 400 0
DWIDTH 14 0
BBX 4 26 5 0
BITMAP
F0
F0
F0
F0
00
00
00
00
F0
F0
F0
F0
F0
F0
F0
F0
F0
F0
F0
F0
F0
F0
F0
F0
F0
F0
ENDCHAR
STARTCHAR cent
ENCODING 162
SWIDTH 636 0
DWIDTH 23 0
BBX 16 30 3 -5
BITMAP
0060
0060
0060
0060
0060
03F8
0FFE
1FFF
3F67
7C61
7860
F860
F060
F060
F060
F060
F060
F060
F860
7860
7C61
3F67
1FFF
0FFE
03F8
0060
0060
0060
0060
0060
ENDCHAR
STARTCHAR sterling
ENCODING 163
SWIDTH 636 0
DWIDTH 23 0
BBX 18 26 2 0
BITMAP
007F00
01FFC0
03FFC0
07C0C0
0F8000
0F0000
0F0000
0F0000
0F0000
0F0000
0F0000
0F0000
FFFE00
FFFE00
FFFE00
0F0000
0F0000
0F0000
0F0000
0F0000
0F0000
0F0000
0F0000
FFFFC0
FFFFC0
FFFFC0
ENDCHAR
STARTCHAR currency
ENCODING 164
SWIDTH 636 0
DWIDTH 23 0
BBX 19 19 2 2
BITMAP
400040
E000E0
79F3C0
3FFF80
1FFF00
1E0F00
1C0700
380380
380380
380380
380380
380380
1C0700
1E0F00
3FFF00
3FFF80
79F1C0
E000E0
400040
ENDCHAR
STARTCHAR yen
ENCODING 165
SWIDTH 636 0
DWIDTH 23 0
BBX 20 26 2 0
BITMAP
F801F0
7801E0
7C03E0
3C03C0
3E07C0
1E0780
0F0F00
0F9F00
079E00
07FE00
7FFFE0
7FFFE0
01F800
01F800
00F000
00F000
7FFFE0
7FFFE0
00F000
00F000
00F000
00F000
00F000
00F000
00F000
00F000
ENDCHAR
STARTCHAR brokenbar
ENCODING 166
SWIDTH 336 0
DWIDTH 12 0
BBX 3 31 5 -6
BITMAP
E0
E0
E0
E0
E0
E0
E0
E0
E0
E0
E0
E0
E0
00
00
00
00
00
E0
E0
E0
E0
E0
E0
E0
E0
E0
E0
E0
E0
E0
ENDCHAR
STARTCHAR section
ENCODING 167
SWIDTH 500 0
DWIDTH 18 0
BBX 15 29 2 -3
BITMAP
0FE0
1FF8
3FF8
7818
7000
7000
7800
3C00
1F00
3FC0
73F0
E0F8
E07C
E01E
E00E
F00E
7C0E
3F1C
0FFC
07F0
00F8
0078
001C
001C
001C
603C
7FF8
7FF0
1FC0
ENDCHAR
STARTCHAR dieresis
ENCODING 168
SWIDTH 500 0
DWIDTH 18 0
BBX 11 4 4 23
BITMAP
F1E0
F1E0
F1E0
F1E0
ENDCHAR
STARTCHAR copyright
ENCODING 169
SWIDTH 1000 0
DWIDTH 36 0
BBX 26 26 5 0
BITMAP
007F8000
01FFE000
07C0F800
0F001C00
1C000E00
381F8700
307FC300
60F04180
61C00180
E1C001C0
C38000C0
C38000C0
C38000C0
C38000C0
C38000C0
C38000C0
E1C001C0
61C00180
70F04180
307FC300
383F8700
1C000E00
0E001C00
07C0F800
01FFE000
007F8000
ENDCHAR
STARTCHAR ordfeminine
ENCODING 170
SWIDTH 471 0
DWIDTH 17 0
BBX 12 18 2 8
BITMAP
3F80
7FE0
40E0
0070
0070
1FF0
7FF0
F070
E070
E070
E0F0
F1F0
7F70
3E70
0000
0000
FFF0
FFF0
ENDCHAR
STARTCHAR guillemotleft
ENCODING 171
SWIDTH 611 0
DWIDTH 22 0
BBX 15 16 3 3
BITMAP
0102
0306
070E
0F1E
1F3E
3C78
78F0
F1E0
F1E0
78F0
3C78
1F3E
0F1E
070E
0306
0102
ENDCHAR
STARTCHAR logicalnot
ENCODING 172
SWIDTH 837 0
DWIDTH 30 0
BBX 23 10 4 5
BITMAP
FFFFFE
FFFFFE
FFFFFE
00000E
00000E
00000E
00000E
00000E
00000E
00000E
ENDCHAR
STARTCHAR sfthyphen
ENCODING 173
SWIDTH 360 0
DWIDTH 13 0
BBX 9 3 2 8
BITMAP
FF80
FF80
FF80
ENDCHAR
STARTCHAR registered
ENCODING 174
SWIDTH 1000 0
DWIDTH 36 0
BBX 26 26 5 0
BITMAP
007F8000
01FFE000
07C0F800
0F001C00
1C000E00
38FF8700
30FFC300
60E1E180
60E0E180
E0E0E1C0
C0E1E0C0
C0FFC0C0
C0FE00C0
C0E700C0
C0E380C0
C0E1C0C0
E0E1C1C0
60E1C180
70E0E180
30E0E300
38E07700
1C000E00
0E001C00
07C0F800
01FFE000
007F8000
ENDCHAR
STARTCHAR macron
ENCODING 175
SWIDTH 500 0
DWIDTH 18 0
BBX 11 3 4 24
BITMAP
FFE0
FFE0
FFE0
ENDCHAR
STARTCHAR degree
ENCODING 176
SWIDTH 500 0
DWIDTH 18 0
BBX 11 11 3 15
BITMAP
1F00
3F80
71C0
E0E0
C060
C060
C060
E0E0
71C0
3F80
1F00
ENDCHAR
STARTCHAR plusminus
ENCODING 177
SWIDTH 837 0
DWIDTH 30 0
BBX 23 23 4 0
BITMAP
003800
003800
003800
003800
003800
003800
003800
FFFFFE
FFFFFE
FFFFFE
003800
003800
003800
003800
003800
003800
003800
000000
000000
000000
FFFFFE
FFFFFE
FFFFFE
ENDCHAR
STARTCHAR twosuperior
ENCODING 178
SWIDTH 400 0
DWIDTH 14 0
BBX 10 15 2 11
BITMAP
7E00
FF80
83C0
01C0
01C0
01C0
0380
0780
0F00
0E00
1E00
3C00
7000
FFC0
FFC0
ENDCHAR
STARTCHAR threesuperior
ENCODING 179
SWIDTH 400 0
DWIDTH 14 0
BBX 11 15 2 11
BITMAP
1F80
7FC0
41E0
00E0
00E0
01C0
1F80
1F80
01C0
00E0
00E0
00E0
81E0
FFC0
7F00
ENDCHAR
STARTCHAR acute
ENCODING 180
SWIDTH 500 0
DWIDTH 18 0
BBX 8 7 7 22
BITMAP
0F
0E
1C
38
38
70
E0
ENDCHAR
STARTCHAR mu
ENCODING 181
SWIDTH 636 0
DWIDTH 23 0
BBX 18 27 3 -7
BITMAP
F00F00
F00F00
F00F00
F00F00
F00F00
F00F00
F00F00
F00F00
F00F00
F00F00
F00F00
F00F00
F00F00
F00F00
F00F00
F81F00
FC3F00
FFFFC0
F7E7C0
F3C380
F00000
F00000
F00000
F00000
F00000
F00000
F00000
ENDCHAR
STARTCHAR paragraph
ENCODING 182
SWIDTH 636 0
DWIDTH 23 0
BBX 16 29 3 -3
BITMAP
0FFF
1FFF
3FC7
7FC7
FFC7
FFC7
FFC7
FFC7
FFC7
FFC7
7FC7
7FC7
3FC7
1FC7
01C7
01C7
01C7
01C7
01C7
01C7
01C7
01C7
01C7
01C7
01C7
01C7
01C7
01C7
01C7
ENDCHAR
STARTCHAR periodcentered
ENCODING 183
SWIDTH 317 0
DWIDTH 11 0
BBX 4 4 4 11
BITMAP
F0
F0
F0
F0
ENDCHAR
STARTCHAR cedilla
ENCODING 184
SWIDTH 500 0
DWIDTH 18 0
BBX 7 7 5 -7
BITMAP
18
0C
0E
8E
FE
FE
FC
ENDCHAR
STARTCHAR onesuperior
ENCODING 185
SWIDTH 400 0
DWIDTH 14 0
BBX 11 15 3 11
BITMAP
3E00
FE00
CE00
0E00
0E00
0E00
0E00
0E00
0E00
0E00
0E00
0E00
0E00
FFE0
FFE0
ENDCHAR
STARTCHAR ordmasculine
ENCODING 186
SWIDTH 471 0
DWIDTH 17 0
BBX 14 18 2 8
BITMAP
0FC0
3FF0
7878
7038
E01C
E01C
E01C
E01C
E01C
E01C
7038
7878
3FF0
0FC0
0000
0000
7FF8
7FF8
ENDCHAR
STARTCHAR guillemotright
ENCODING 187
SWIDTH 611 0
DWIDTH 22 0
BBX 15 16 3 3
BITMAP
8100
C180
E1C0
F1E0
F9F0
3C78
1E3C
0F1E
0F1E
1E3C
3C78
F9F0
F1E0
E1C0
C180
8100
ENDCHAR
STARTCHAR onequarter
ENCODING 188
SWIDTH 969 0
DWIDTH 35 0
BBX 30 27 3 -1
BITMAP
3E000E00
FE000C00
CE001800
0E003800
0E003000
0E007000
0E00E000
0E00C000
0E01C000
0E018000
0E030000
0E070000
0E060070
FFEC00F0
FFFC01F0
00180370
00300270
00700670
00600C70
00E00870
01C01870
01803070
03803FFC
03003FFC
06000070
0E000070
00000070
ENDCHAR
STARTCHAR onehalf
ENCODING 189
SWIDTH 969 0
DWIDTH 35 0
BBX 29 27 3 -1
BITMAP
3E000E00
FE000C00
CE001800
0E003800
0E003000
0E007000
0E00E000
0E00C000
0E01C000
0E018000
0E030000
0E070000
0E060FC0
FFEC1FF0
FFFC1078
00180038
00300038
00700038
00600070
00E000F0
01C001E0
018001C0
038003C0
03000780
06000E00
0E001FF8
00001FF8
ENDCHAR
STARTCHAR threequarters
ENCODING 190
SWIDTH 969 0
DWIDTH 35 0
BBX 31 27 2 -1
BITMAP
1F800700
7FC00600
41E00C00
00E01C00
00E01800
01C03800
1F807000
1F806000
01C0E000
00E0C000
00E18000
00E38000
81E30038
FFC60078
7F0E00F8
000C01B8
00180138
00380338
00300638
00700438
00E00C38
00C01838
01C01FFE
01801FFE
03000038
07000038
00000038
ENDCHAR
STARTCHAR questiondown
ENCODING 191
SWIDTH 530 0
DWIDTH 19 0
BBX 14 26 3 0
BITMAP
03C0
03C0
03C0
03C0
0000
0000
0000
03C0
03C0
03C0
03C0
03C0
0780
0780
0F00
1E00
3C00
7800
F000
F000
F000
F804
FC1C
7FFC
3FF8
0FE0
ENDCHAR
STARTCHAR Agrave
ENCODING 192
SWIDTH 684 0
DWIDTH 25 0
BBX 24 34 0 0
BITMAP
00F000
007000
003800
001C00
000C00
000000
000000
000000
003C00
007E00
007E00
007E00
00FF00
00FF00
01FF80
01E780
01E780
03E7C0
03C3C0
03C3C0
0781E0
0781E0
0F81F0
0F00F0
0FFFF0
1FFFF8
1FFFF8
3E0078
3C003C
3C003C
7C003E
78001E
78001E
F0000F
ENDCHAR
STARTCHAR Aacute
ENCODING 193
SWIDTH 684 0
DWIDTH 25 0
BBX 24 34 0 0
BITMAP
000700
000F00
000E00
001C00
003800
000000
000000
000000
003C00
007E00
007E00
007E00
00FF00
00FF00
01FF80
01E780
01E780
03E7C0
03C3C0
03C3C0
0781E0
0781E0
0F81F0
0F00F0
0FFFF0
1FFFF8
1FFFF8
3E0078
3C003C
3C003C
7C003E
78001E
78001E
F0000F
ENDCHAR
STARTCHAR Acircumflex
ENCODING 194
SWIDTH 684 0
DWIDTH 25 0
BBX 24 34 0 0
BITMAP
003E00
003E00
007700
00E380
01C1C0
000000
000000
000000
003C00
007E00
007E00
007E00
00FF00
00FF00
01FF80
01E780
01E780
03E7C0
03C3C0
03C3C0
0781E0
0781E0
0F81F0
0F00F0
0FFFF0
1FFFF8
1FFFF8
3E0078
3C003C
3C003C
7C003E
78001E
78001E
F0000F
ENDCHAR
STARTCHAR Atilde
ENCODING 195
SWIDTH 684 0
DWIDTH 25 0
BBX 24 34 0 0
BITMAP
00E0C0
01F8C0
031F80
030700
000000
000000
000000
000000
003C00
007E00
007E00
007E00
00FF00
00FF00
01FF80
01E780
01E780
03E7C0
03C3C0
03C3C0
0781E0
0781E0
0F81F0
0F00F0
0FFFF0
1FFFF8
1FFFF8
3E0078
3C003C
3C003C
7C003E
78001E
78001E
F0000F
ENDCHAR
STARTCHAR Adieresis
ENCODING 196
SWIDTH 684 0
DWIDTH 25 0
BBX 24 34 0 0
BITMAP
01E3C0
01E3C0
01E3C0
01E3C0
000000
000000
000000
000000
003C00
007E00
007E00
007E00
00FF00
00FF00
01FF80
01E780
01E780
03E7C0
03C3C0
03C3C0
0781E0
0781E0
0F81F0
0F00F0
0FFFF0
1FFFF8
1FFFF8
3E0078
3C003C
3C003C
7C003E
78001E
78001E
F0000F
ENDCHAR
STARTCHAR Aring
ENCODING 197
SWIDTH 684 0
DWIDTH 25 0
BBX 24 33 0 0
BITMAP
003C00
00FF00
01C300
018180
018180
018180
01C380
00FF00
007E00
007E00
00FF00
00FF00
01FF80
01E780
01E780
03E7C0
03C3C0
03C3C0
07C3E0
0781E0
0781E0
0F00F0
0F00F0
1FFFF8
1FFFF8
1FFFF8
3E007C
3C003C
3C003C
7C003E
78001E
78001E
F0000F
ENDCHAR
STARTCHAR AE
ENCODING 198
SWIDTH 974 0
DWIDTH 35 0
BBX 33 26 0 0
BITMAP
001FFFFF80
001FFFFF80
003FFFFF80
003CF00000
007CF00000
0078F00000
00F8F00000
00F0F00000
00F0F00000
01E0F00000
01E0F00000
03E0FFFF00
03C0FFFF00
07C0FFFF00
0780F00000
0780F00000
0FFFF00000
0FFFF00000
1FFFF00000
1E00F00000
3E00F00000
3C00F00000
7C00F00000
7800FFFF80
7800FFFF80
F800FFFF80
ENDCHAR
STARTCHAR Ccedilla
ENCODING 199
SWIDTH 698 0
DWIDTH 25 0
BBX 21 33 2 -7
BITMAP
007F00
03FFE0
0FFFF0
1FC0F8
3F0038
3C0018
7C0000
780000
780000
F00000
F00000
F00000
F00000
F00000
F00000
F00000
F00000
780000
780000
7C0000
3C0018
3F0038
1FC0F8
0FFFF0
03FFE0
00FF00
001800
000C00
000E00
008E00
00FE00
00FE00
00FC00
ENDCHAR
STARTCHAR Egrave
ENCODING 200
SWIDTH 631 0
DWIDTH 23 0
BBX 17 34 3 0
BITMAP
078000
038000
01C000
00E000
006000
000000
000000
000000
FFFF80
FFFF80
FFFF80
F00000
F00000
F00000
F00000
F00000
F00000
F00000
F00000
FFFF00
FFFF00
FFFF00
F00000
F00000
F00000
F00000
F00000
F00000
F00000
F00000
F00000
FFFF80
FFFF80
FFFF80
ENDCHAR
STARTCHAR Eacute
ENCODING 201
SWIDTH 631 0
DWIDTH 23 0
BBX 17 34 3 0
BITMAP
003800
007800
007000
00E000
01C000
000000
000000
000000
FFFF80
FFFF80
FFFF80
F00000
F00000
F00000
F00000
F00000
F00000
F00000
F00000
FFFF00
FFFF00
FFFF00
F00000
F00000
F00000
F00000
F00000
F00000
F00000
F00000
F00000
FFFF80
FFFF80
FFFF80
ENDCHAR
STARTCHAR Ecircumflex
ENCODING 202
SWIDTH 631 0
DWIDTH 23 0
BBX 17 34 3 0
BITMAP
01F000
01F000
03B800
071C00
0E0E00
000000
000000
000000
FFFF80
FFFF80
FFFF80
F00000
F00000
F00000
F00000
F00000
F00000
F00000
F00000
FFFF00
FFFF00
FFFF00
F00000
F00000
F00000
F00000
F00000
F00000
F00000
F00000
F00000
FFFF80
FFFF80
FFFF80
ENDCHAR
STARTCHAR Edieresis
ENCODING 203
SWIDTH 631 0
DWIDTH 23 0
BBX 17 34 3 0
BITMAP
0F1E00
0F1E00
0F1E00
0F1E00
000000
000000
000000
000000
FFFF80
FFFF80
FFFF80
F00000
F00000
F00000
F00000
F00000
F00000
F00000
F00000
FFFF00
FFFF00
FFFF00
F00000
F00000
F00000
F00000
F00000
F00000
F00000
F00000
F00000
FFFF80
FFFF80
FFFF80
ENDCHAR
STARTCHAR Igrave
ENCODING 204
SWIDTH 294 0
DWIDTH 11 0
BBX 6 34 1 0
BITMAP
F0
70
38
1C
0C
00
00
00
3C
3C
3C
3C
3C
3C
3C
3C
3C
3C
3C
3C
3C
3C
3C
3C
3C
3C
3C
3C
3C
3C
3C
3C
3C
3C
ENDCHAR
STARTCHAR Iacute
ENCODING 205
SWIDTH 294 0
DWIDTH 11 0
BBX 6 34 3 0
BITMAP
1C
3C
38
70
E0
00
00
00
F0
F0
F0
F0
F0
F0
F0
F0
F0
F0
F0
F0
F0
F0
F0
F0
F0
F0
F0
F0
F0
F0
F0
F0
F0
F0
ENDCHAR
STARTCHAR Icircumflex
ENCODING 206
SWIDTH 294 0
DWIDTH 11 0
BBX 11 34 0 0
BITMAP
1F00
1F00
3B80
71C0
E0E0
0000
0000
0000
1E00
1E00
1E00
1E00
1E00
1E00
1E00
1E00
1E00
1E00
1E00
1E00
1E00
1E00
1E00
1E00
1E00
1E00
1E00
1E00
1E00
1E00
1E00
1E00
1E00
1E00
ENDCHAR
STARTCHAR Idieresis
ENCODING 207
SWIDTH 294 0
DWIDTH 11 0
BBX 11 34 0 0
BITMAP
F1E0
F1E0
F1E0
F1E0
0000
0000
0000
0000
1E00
1E00
1E00
1E00
1E00
1E00
1E00
1E00
1E00
1E00
1E00
1E00
1E00
1E00
1E00
1E00
1E00
1E00
1E00
1E00
1E00
1E00
1E00
1E00
1E00
1E00
ENDCHAR
STARTCHAR Eth
ENCODING 208
SWIDTH 774 0
DWIDTH 28 0
BBX 26 26 0 0
BITMAP
0FFF8000
0FFFF000
0FFFFC00
0F00FE00
0F001F00
0F000F00
0F000F80
0F000780
0F0007C0
0F0003C0
0F0003C0
FFFC03C0
FFFC03C0
FFFC03C0
0F0003C0
0F0003C0
0F0003C0
0F0007C0
0F000780
0F000F80
0F000F00
0F001F00
0F00FE00
0FFFFC00
0FFFF000
0FFF8000
ENDCHAR
STARTCHAR Ntilde
ENCODING 209
SWIDTH 748 0
DWIDTH 27 0
BBX 20 34 3 0
BITMAP
038300
07E300
0C7E00
0C1C00
000000
000000
000000
000000
FC00F0
FC00F0
FE00F0
FE00F0
FF00F0
FF00F0
FF80F0
F780F0
F7C0F0
F3C0F0
F3E0F0
F1F0F0
F1F0F0
F0F8F0
F078F0
F07CF0
F03CF0
F03EF0
F01EF0
F01FF0
F00FF0
F00FF0
F007F0
F007F0
F003F0
F003F0
ENDCHAR
STARTCHAR Ograve
ENCODING 210
SWIDTH 787 0
DWIDTH 28 0
BBX 24 34 2 0
BITMAP
00F000
007000
003800
001C00
000C00
000000
000000
000000
00FF00
03FFC0
0FFFF0
1F81F8
3E007C
3C003C
7C003E
78001E
78001E
F0000F
F0000F
F0000F
F0000F
F0000F
F0000F
F0000F
F0000F
78001E
78001E
7C003E
3C003C
3E007C
1F81F8
0FFFF0
03FFC0
00FF00
ENDCHAR
STARTCHAR Oacute
ENCODING 211
SWIDTH 787 0
DWIDTH 28 0
BBX 24 34 2 0
BITMAP
000700
000F00
000E00
001C00
003800
000000
000000
000000
00FF00
03FFC0
0FFFF0
1F81F8
3E007C
3C003C
7C003E
78001E
78001E
F0000F
F0000F
F0000F
F0000F
F0000F
F0000F
F0000F
F0000F
78001E
78001E
7C003E
3C003C
3E007C
1F81F8
0FFFF0
03FFC0
00FF00
ENDCHAR
STARTCHAR Ocircumflex
ENCODING 212
SWIDTH 787 0
DWIDTH 28 0
BBX 24 34 2 0
BITMAP
003E00
003E00
007700
00E380
01C1C0
000000
000000
000000
00FF00
03FFC0
0FFFF0
1F81F8
3E007C
3C003C
7C003E
78001E
78001E
F0000F
F0000F
F0000F
F0000F
F0000F
F0000F
F0000F
F0000F
78001E
78001E
7C003E
3C003C
3E007C
1F81F8
0FFFF0
03FFC0
00FF00
ENDCHAR
STARTCHAR Otilde
ENCODING 213
SWIDTH 787 0
DWIDTH 28 0
BBX 24 34 2 0
BITMAP
00E0C0
01F8C0
031F80
030700
000000
000000
000000
000000
00FF00
03FFC0
0FFFF0
1F81F8
3E007C
3C003C
7C003E
78001E
78001E
F0000F
F0000F
F0000F
F0000F
F0000F
F0000F
F0000F
F0000F
78001E
78001E
7C003E
3C003C
3E007C
1F81F8
0FFFF0
03FFC0
00FF00
ENDCHAR
STARTCHAR Odieresis
ENCODING 214
SWIDTH 787 0
DWIDTH 28 0
BBX 24 34 2 0
BITMAP
01E3C0
01E3C0
01E3C0
01E3C0
000000
000000
000000
000000
00FF00
03FFC0
0FFFF0
1F81F8
3E007C
3C003C
7C003E
78001E
78001E
F0000F
F0000F
F0000F
F0000F
F0000F
F0000F
F0000F
F0000F
78001E
78001E
7C003E
3C003C
3E007C
1F81F8
0FFFF0
03FFC0
00FF00
ENDCHAR
STARTCHAR multiply
ENCODING 215
SWIDTH 837 0
DWIDTH 30 0
BBX 20 20 5 1
BITMAP
200040
7000E0
F801F0
7C03E0
3E07C0
1F0F80
0F9F00
07FE00
03FC00
01F800
01F800
03FC00
07FE00
0F9F00
1F0F80
3E07C0
7C03E0
F801F0
7000E0
200040
ENDCHAR
STARTCHAR Oslash
ENCODING 216
SWIDTH 787 0
DWIDTH 28 0
BBX 24 28 2 -1
BITMAP
000002
00FE07
03FFCF
0FFFEE
1F81FC
3E0078
3C007C
7C00FC
7801DE
78039E
F0038F
F0070F
F00E0F
F01C0F
F0380F
F0700F
F0E00F
F1C00F
79C01E
7B801E
7F003E
3E003C
1E007C
3F81F8
77FFF0
73FFC0
E07F00
400000
ENDCHAR
STARTCHAR Ugrave
ENCODING 217
SWIDTH 731 0
DWIDTH 26 0
BBX 20 34 4 0
BITMAP
078000
038000
01C000
00E000
006000
000000
000000
000000
F000F0
F000F0
F000F0
F000F0
F000F0
F000F0
F000F0
F000F0
F000F0
F000F0
F000F0
F000F0
F000F0
F000F0
F000F0
F000F0
F000F0
F000F0
F000F0
F801F0
7801E0
7C03E0
3E07C0
1FFF80
0FFF00
03FC00
ENDCHAR
STARTCHAR Uacute
ENCODING 218
SWIDTH 731 0
DWIDTH 26 0
BBX 20 34 4 0
BITMAP
003800
007800
007000
00E000
01C000
000000
000000
000000
F000F0
F000F0
F000F0
F000F0
F000F0
F000F0
F000F0
F000F0
F000F0
F000F0
F000F0
F000F0
F000F0
F000F0
F000F0
F000F0
F000F0
F000F0
F000F0
F801F0
7801E0
7C03E0
3E07C0
1FFF80
0FFF00
03FC00
ENDCHAR
STARTCHAR Ucircumflex
ENCODING 219
SWIDTH 731 0
DWIDTH 26 0
BBX 20 34 4 0
BITMAP
01F000
01F000
03B800
071C00
0E0E00
000000
000000
000000
F000F0
F000F0
F000F0
F000F0
F000F0
F000F0
F000F0
F000F0
F000F0
F000F0
F000F0
F000F0
F000F0
F000F0
F000F0
F000F0
F000F0
F000F0
F000F0
F801F0
7801E0
7C03E0
3E07C0
1FFF80
0FFF00
03FC00
ENDCHAR
STARTCHAR Udieresis
ENCODING 220
SWIDTH 731 0
DWIDTH 26 0
BBX 20 34 4 0
BITMAP
0F1E00
0F1E00
0F1E00
0F1E00
000000
000000
000000
000000
F000F0
F000F0
F000F0
F000F0
F000F0
F000F0
F000F0
F000F0
F000F0
F000F0
F000F0
F000F0
F000F0
F000F0
F000F0
F000F0
F000F0
F000F0
F000F0
F801F0
7801E0
7C03E0
3E07C0
1FFF80
0FFF00
03FC00
ENDCHAR
STARTCHAR Yacute
ENCODING 221
SWIDTH 610 0
DWIDTH 22 0
BBX 22 34 0 0
BITMAP
000E00
001E00
001C00
003800
007000
000000
000000
000000
F8007C
7C00F8
3C00F0
3E01F0
1F03E0
0F03C0
0F87C0
07CF80
03CF00
03FF00
01FE00
00FC00
00FC00
007800
007800
007800
007800
007800
007800
007800
007800
007800
007800
007800
007800
007800
ENDCHAR
STARTCHAR Thorn
ENCODING 222
SWIDTH 604 0
DWIDTH 22 0
BBX 17 26 3 0
BITMAP
F00000
F00000
F00000
F00000
F00000
FFF000
FFFC00
FFFE00
F01F00
F00F00
F00780
F00780
F00780
F00780
F00780
F00780
F00F00
F01F00
FFFE00
FFFC00
FFF000
F00000
F00000
F00000
F00000
F00000
ENDCHAR
STARTCHAR germandbls
ENCODING 223
SWIDTH 629 0
DWIDTH 23 0
BBX 18 27 3 0
BITMAP
07F000
1FF800
3FFC00
7C3E00
F81E00
F00F00
F00F00
F07F00
F0F800
F0F000
F1E000
F1E000
F1E000
F1E000
F0F000
F07C00
F01E00
F00F80
F00780
F003C0
F003C0
F003C0
F003C0
F207C0
F3FF80
F3FF00
F1FC00
ENDCHAR
STARTCHAR agrave
ENCODING 224
SWIDTH 612 0
DWIDTH 22 0
BBX 17 29 2 0
BITMAP
3C0000
1C0000
0E0000
070000
070000
038000
01C000
000000
000000
07F000
3FFC00
7FFE00
703F00
400F00
000F80
000780
000780
07FF80
3FFF80
7FFF80
7C0780
F00780
F00780
F00F80
F00F80
F83F80
7FF780
3FE780
0F8780
ENDCHAR
STARTCHAR aacute
ENCODING 225
SWIDTH 612 0
DWIDTH 22 0
BBX 17 29 2 0
BITMAP
003C00
003800
007000
00E000
00E000
01C000
038000
000000
000000
07F000
3FFC00
7FFE00
703F00
400F00
000F80
000780
000780
07FF80
3FFF80
7FFF80
7C0780
F00780
F00780
F00F80
F00F80
F83F80
7FF780
3FE780
0F8780
ENDCHAR
STARTCHAR acircumflex
ENCODING 226
SWIDTH 612 0
DWIDTH 22 0
BBX 17 29 2 0
BITMAP
038000
07C000
06C000
0EE000
1C7000
183000
383800
000000
000000
07F000
3FFC00
7FFE00
703F00
400F00
000F80
000780
000780
07FF80
3FFF80
7FFF80
7C0780
F00780
F00780
F00F80
F00F80
F83F80
7FF780
3FE780
0F8780
ENDCHAR
STARTCHAR atilde
ENCODING 227
SWIDTH 612 0
DWIDTH 22 0
BBX 17 28 2 0
BITMAP
0E0C00
1F8C00
3BDC00
31F800
307000
000000
000000
000000
07F000
3FFC00
7FFE00
703F00
400F00
000F80
000780
000780
07FF80
3FFF80
7FFF80
7C0780
F00780
F00780
F00F80
F00F80
F83F80
7FF780
3FE780
0F8780
ENDCHAR
STARTCHAR adieresis
ENCODING 228
SWIDTH 612 0
DWIDTH 22 0
BBX 17 27 2 0
BITMAP
1E3C00
1E3C00
1E3C00
1E3C00
000000
000000
000000
07F000
3FFC00
7FFE00
703F00
400F00
000F80
000780
000780
07FF80
3FFF80
7FFF80
7C0780
F00780
F00780
F00F80
F00F80
F83F80
7FF780
3FE780
0F8780
ENDCHAR
STARTCHAR aring
ENCODING 229
SWIDTH 612 0
DWIDTH 22 0
BBX 17 32 2 0
BITMAP
03C000
0FF000
0C3000
181800
181800
181800
181800
0C3000
0FF000
03C000
000000
000000
07F000
3FFC00
7FFE00
703F00
400F00
000F80
000780
000780
07FF80
3FFF80
7FFF80
7C0780
F00780
F00780
F00F80
F00F80
F83F80
7FF780
3FE780
0F8780
ENDCHAR
STARTCHAR ae
ENCODING 230
SWIDTH 981 0
DWIDTH 35 0
BBX 30 20 2 0
BITMAP
0FE03F80
3FF8FFE0
7FFDFFF0
707FE0F0
401FC078
000F8078
000F003C
000F003C
0FFFFFFC
3FFFFFFC
7FFFFFFC
7C0F0000
F00F0000
F00F8000
F01F8000
F01FC008
F87BF038
7FF9FFF8
3FE0FFF0
1FC03FC0
ENDCHAR
STARTCHAR ccedilla
ENCODING 231
SWIDTH 549 0
DWIDTH 20 0
BBX 16 27 2 -7
BITMAP
01F8
0FFE
1FFF
3F07
7C01
7800
F800
F000
F000
F000
F000
F000
F000
F800
7800
7C01
3F07
1FFF
0FFE
03F8
0060
0030
0038
0238
03F8
03F8
03F0
ENDCHAR
STARTCHAR egrave
ENCODING 232
SWIDTH 615 0
DWIDTH 22 0
BBX 18 29 2 0
BITMAP
1E0000
0E0000
070000
038000
038000
01C000
00E000
000000
000000
03F800
0FFE00
1FFF00
3E0F80
7C0780
780780
F003C0
F003C0
FFFFC0
FFFFC0
FFFFC0
F00000
F00000
F80000
780000
7C0080
3F0380
1FFF80
0FFF00
03FC00
ENDCHAR
STARTCHAR eacute
ENCODING 233
SWIDTH 615 0
DWIDTH 22 0
BBX 18 29 2 0
BITMAP
001E00
001C00
003800
007000
007000
00E000
01C000
000000
000000
03F800
0FFE00
1FFF00
3E0F80
7C0780
780780
F003C0
F003C0
FFFFC0
FFFFC0
FFFFC0
F00000
F00000
F80000
780000
7C0080
3F0380
1FFF80
0FFF00
03FC00
ENDCHAR
STARTCHAR ecircumflex
ENCODING 234
SWIDTH 615 0
DWIDTH 22 0
BBX 18 29 2 0
BITMAP
01C000
03E000
036000
077000
0E3800
0C1800
1C1C00
000000
000000
03F800
0FFE00
1FFF00
3E0F80
7C0780
780780
F003C0
F003C0
FFFFC0
FFFFC0
FFFFC0
F00000
F00000
F80000
780000
7C0080
3F0380
1FFF80
0FFF00
03FC00
ENDCHAR
STARTCHAR edieresis
ENCODING 235
SWIDTH 615 0
DWIDTH 22 0
BBX 18 27 2 0
BITMAP
0F1E00
0F1E00
0F1E00
0F1E00
000000
000000
000000
03F800
0FFE00
1FFF00
3E0F80
7C0780
780780
F003C0
F003C0
FFFFC0
FFFFC0
FFFFC0
F00000
F00000
F80000
780000
7C0080
3F0380
1FFF80
0FFF00
03FC00
ENDCHAR
STARTCHAR igrave
ENCODING 236
SWIDTH 277 0
DWIDTH 10 0
BBX 8 29 -1 0
BITMAP
F0
70
38
1C
1C
0E
07
00
00
0F
0F
0F
0F
0F
0F
0F
0F
0F
0F
0F
0F
0F
0F
0F
0F
0F
0F
0F
0F
ENDCHAR
STARTCHAR iacute
ENCODING 237
SWIDTH 277 0
DWIDTH 10 0
BBX 8 29 3 0
BITMAP
0F
0E
1C
38
38
70
E0
00
00
F0
F0
F0
F0
F0
F0
F0
F0
F0
F0
F0
F0
F0
F0
F0
F0
F0
F0
F0
F0
ENDCHAR
STARTCHAR icircumflex
ENCODING 238
SWIDTH 277 0
DWIDTH 10 0
BBX 11 29 -1 0
BITMAP
0E00
1F00
1B00
3B80
71C0
60C0
E0E0
0000
0000
0F00
0F00
0F00
0F00
0F00
0F00
0F00
0F00
0F00
0F00
0F00
0F00
0F00
0F00
0F00
0F00
0F00
0F00
0F00
0F00
ENDCHAR
STARTCHAR idieresis
ENCODING 239
SWIDTH 277 0
DWIDTH 10 0
BBX 11 27 0 0
BITMAP
F1E0
F1E0
F1E0
F1E0
0000
0000
0000
1E00
1E00
1E00
1E00
1E00
1E00
1E00
1E00
1E00
1E00
1E00
1E00
1E00
1E00
1E00
1E00
1E00
1E00
1E00
1E00
ENDCHAR
STARTCHAR eth
ENCODING 240
SWIDTH 611 0
DWIDTH 22 0
BBX 18 27 2 0
BITMAP
0F0000
078E00
03FE00
01F000
0FE000
3EF000
107800
003C00
03FE00
0FFE00
3FFF00
3E0F80
7C0780
780780
F003C0
F003C0
F003C0
F003C0
F003C0
F003C0
F003C0
780780
7C0F80
3E1F00
1FFE00
0FFC00
03F000
ENDCHAR
STARTCHAR ntilde
ENCODING 241
SWIDTH 633 0
DWIDTH 23 0
BBX 16 28 3 0
BITMAP
0706
0FC6
1DEE
18FC
1838
0000
0000
0000
F1F0
F3FC
F7FE
FE3E
F81E
F80F
F00F
F00F
F00F
F00F
F00F
F00F
F00F
F00F
F00F
F00F
F00F
F00F
F00F
F00F
ENDCHAR
STARTCHAR ograve
ENCODING 242
SWIDTH 611 0
DWIDTH 22 0
BBX 18 29 2 0
BITMAP
1E0000
0E0000
070000
038000
038000
01C000
00E000
000000
000000
03F000
0FFC00
1FFE00
3E1F00
7C0F80
780780
F807C0
F003C0
F003C0
F003C0
F003C0
F003C0
F003C0
F007C0
780780
7C0F80
3E1F00
1FFE00
0FFC00
03F000
ENDCHAR
STARTCHAR oacute
ENCODING 243
SWIDTH 611 0
DWIDTH 22 0
BBX 18 29 2 0
BITMAP
001E00
001C00
003800
007000
007000
00E000
01C000
000000
000000
03F000
0FFC00
1FFE00
3E1F00
7C0F80
780780
F807C0
F003C0
F003C0
F003C0
F003C0
F003C0
F003C0
F007C0
780780
7C0F80
3E1F00
1FFE00
0FFC00
03F000
ENDCHAR
STARTCHAR ocircumflex
ENCODING 244
SWIDTH 611 0
DWIDTH 22 0
BBX 18 29 2 0
BITMAP
01C000
03E000
036000
077000
0E3800
0C1800
1C1C00
000000
000000
03F000
0FFC00
1FFE00
3E1F00
7C0F80
780780
F807C0
F003C0
F003C0
F003C0
F003C0
F003C0
F003C0
F007C0
780780
7C0F80
3E1F00
1FFE00
0FFC00
03F000
ENDCHAR
STARTCHAR otilde
ENCODING 245
SWIDTH 611 0
DWIDTH 22 0
BBX 18 28 2 0
BITMAP
070600
0FC600
1DEE00
18FC00
183800
000000
000000
000000
03F000
0FFC00
1FFE00
3E1F00
7C0F80
780780
F807C0
F003C0
F003C0
F003C0
F003C0
F003C0
F003C0
F007C0
780780
7C0F80
3E1F00
1FFE00
0FFC00
03F000
ENDCHAR
STARTCHAR odieresis
ENCODING 246
SWIDTH 611 0
DWIDTH 22 0
BBX 18 27 2 0
BITMAP
0F1E00
0F1E00
0F1E00
0F1E00
000000
000000
000000
03F000
0FFC00
1FFE00
3E1F00
7C0F80
780780
F807C0
F003C0
F003C0
F003C0
F003C0
F003C0
F003C0
F007C0
780780
7C0F80
3E1F00
1FFE00
0FFC00
03F000
ENDCHAR
STARTCHAR divide
ENCODING 247
SWIDTH 837 0
DWIDTH 30 0
BBX 22 17 4 3
BITMAP
007800
007800
007800
007800
000000
000000
000000
FFFFFC
FFFFFC
FFFFFC
000000
000000
000000
007800
007800
007800
007800
ENDCHAR
STARTCHAR oslash
ENCODING 248
SWIDTH 611 0
DWIDTH 22 0
BBX 18 22 2 -1
BITMAP
0000C0
07F1C0
0FFBC0
3FFF80
3E1F00
7C0F00
781F80
F81B80
F033C0
F063C0
F0E3C0
F1C3C0
F183C0
F303C0
7607C0
7E0780
3C0F80
3E1F00
7FFF00
F7FE00
E3F000
C00000
ENDCHAR
STARTCHAR ugrave
ENCODING 249
SWIDTH 633 0
DWIDTH 23 0
BBX 16 29 3 0
BITMAP
3C00
1C00
0E00
0700
0700
0380
01C0
0000
0000
F00F
F00F
F00F
F00F
F00F
F00F
F00F
F00F
F00F
F00F
F00F
F00F
F00F
F00F
F01F
F81F
7C7F
7FEF
3FCF
0F8F
ENDCHAR
STARTCHAR uacute
ENCODING 250
SWIDTH 633 0
DWIDTH 23 0
BBX 16 29 3 0
BITMAP
003C
0038
0070
00E0
00E0
01C0
0380
0000
0000
F00F
F00F
F00F
F00F
F00F
F00F
F00F
F00F
F00F
F00F
F00F
F00F
F00F
F00F
F01F
F81F
7C7F
7FEF
3FCF
0F8F
ENDCHAR
STARTCHAR ucircumflex
ENCODING 251
SWIDTH 633 0
DWIDTH 23 0
BBX 16 29 3 0
BITMAP
0380
07C0
06C0
0EE0
1C70
1830
3838
0000
0000
F00F
F00F
F00F
F00F
F00F
F00F
F00F
F00F
F00F
F00F
F00F
F00F
F00F
F00F
F01F
F81F
7C7F
7FEF
3FCF
0F8F
ENDCHAR
STARTCHAR udieresis
ENCODING 252
SWIDTH 633 0
DWIDTH 23 0
BBX 16 27 3 0
BITMAP
1E3C
1E3C
1E3C
1E3C
0000
0000
0000
F00F
F00F
F00F
F00F
F00F
F00F
F00F
F00F
F00F
F00F
F00F
F00F
F00F
F00F
F01F
F81F
7C7F
7FEF
3FCF
0F8F
ENDCHAR
STARTCHAR yacute
ENCODING 253
SWIDTH 591 0
DWIDTH 21 0
BBX 19 36 1 -7
BITMAP
000F00
000E00
001C00
003800
003800
007000
00E000
000000
000000
F803E0
7803C0
7803C0
7C07C0
3C0780
3E0F80
1E0F00
1E0F00
0F1F00
0F1E00
0FBE00
07BC00
07BC00
03FC00
03F800
03F800
01F000
01F000
01F000
01E000
03E000
03C000
07C000
07C000
3F8000
3F0000
3E0000
ENDCHAR
STARTCHAR thorn
ENCODING 254
SWIDTH 634 0
DWIDTH 23 0
BBX 18 34 3 -7
BITMAP
F00000
F00000
F00000
F00000
F00000
F00000
F00000
F1F800
F7FE00
FFFF00
FE1F00
FC0F80
F80780
F007C0
F003C0
F003C0
F003C0
F003C0
F003C0
F003C0
F007C0
F80780
FC0F80
FE1F00
FFFF00
F7FE00
F1F800
F00000
F00000
F00000
F00000
F00000
F00000
F00000
ENDCHAR
STARTCHAR ydieresis
ENCODING 255
SWIDTH 591 0
DWIDTH 21 0
BBX 19 34 1 -7
BITMAP
078F00
078F00
078F00
078F00
000000
000000
000000
F803E0
7803C0
7803C0
7C07C0
3C0780
3E0F80
1E0F00
1E0F00
0F1F00
0F1E00
0FBE00
07BC00
07BC00
03FC00
03F800
03F800
01F000
01F000
01F000
01E000
03E000
03C000
07C000
07C000
3F8000
3F0000
3E0000
ENDCHAR
STARTCHAR .notdef
ENCODING -1
SWIDTH 600 0
DWIDTH 22 0
BBX 18 32 2 -7
BITMAP
FFFFC0
FFFFC0
C000C0
C000C0
C000C0
C000C0
C000C0
C000C0
C000C0
C000C0
C000C0
C000C0
C000C0
C000C0
C000C0
C000C0
C000C0
C000C0
C000C0
C000C0
C000C0
C000C0
C000C0
C000C0
C000C0
C000C0
C000C0
C000C0
C000C0
C000C0
FFFFC0
FFFFC0
ENDCHAR
STARTCHAR .null
ENCODING -1
SWIDTH 0 0
DWIDTH 0 0
BBX 1 1 0 0
BITMAP
00
ENDCHAR
STARTCHAR nonmarkingreturn
ENCODING -1
SWIDTH 317 0
DWIDTH 11 0
BBX 1 1 0 0
BITMAP
00
ENDCHAR
STARTCHAR dagger
ENCODING -1
SWIDTH 500 0
DWIDTH 18 0
BBX 15 29 1 -3
BITMAP
0380
0380
0380
0380
0380
0380
0380
FFFE
FFFE
FFFE
0380
0380
0380
0380
0380
0380
0380
0380
0380
0380
0380
0380
0380
0380
0380
0380
0380
0380
0380
ENDCHAR
STARTCHAR bullet
ENCODING -1
SWIDTH 589 0
DWIDTH 21 0
BBX 10 10 5 9
BITMAP
1E00
7F80
7F80
FFC0
FFC0
FFC0
FFC0
7F80
7F80
1E00
ENDCHAR
STARTCHAR trademark
ENCODING -1
SWIDTH 1000 0
DWIDTH 36 0
BBX 24 10 5 16
BITMAP
FFCE07
FFCF0F
0C0F9F
0C0D9B
0C0CF3
0C0CF3
0C0C63
0C0C03
0C0C03
0C0C03
ENDCHAR
STARTCHAR notequal
ENCODING -1
SWIDTH 837 0
DWIDTH 30 0
BBX 23 22 4 0
BITMAP
000020
000070
000070
0000E0
0001E0
0003C0
FFFFFE
FFFFFE
FFFFFE
001E00
003C00
007800
00F000
FFFFFE
FFFFFE
FFFFFE
078000
0F0000
1E0000
1C0000
1C0000
080000
ENDCHAR
STARTCHAR infinity
ENCODING -1
SWIDTH 833 0
DWIDTH 30 0
BBX 22 14 4 4
BITMAP
1E03E0
3F87F0
7F8FF8
61DE18
C07C0C
803804
803804
807004
80F804
C0F80C
61CE18
7FC7F8
3F87F0
1F01E0
ENDCHAR
STARTCHAR lessequal
ENCODING -1
SWIDTH 837 0
DWIDTH 30 0
BBX 23 21 4 0
BITMAP
000006
00003E
0003FE
001FFC
01FFC0
1FFE00
FFE000
FE0000
FF0000
FFE000
1FFE00
01FFC0
001FFC
0003FE
00003E
000006
000000
000000
FFFFFE
FFFFFE
FFFFFE
ENDCHAR
STARTCHAR greaterequal
ENCODING -1
SWIDTH 837 0
DWIDTH 30 0
BBX 23 21 4 0
BITMAP
C00000
F80000
FF8000
7FF000
07FF00
00FFF0
000FFE
0001FE
0000FE
000FFE
00FFE0
07FF00
7FF000
FF8000
F80000
C00000
000000
000000
FFFFFE
FFFFFE
FFFFFE
ENDCHAR
STARTCHAR partialdiff
ENCODING -1
SWIDTH 517 0
DWIDTH 19 0
BBX 15 23 2 0
BITMAP
03E0
0FF0
0F18
0E0C
000C
000C
000E
000E
000E
0F8E
1C6E
383E
701E
701E
E01C
E01C
E01C
E018
E038
6030
7060
30C0
0F80
ENDCHAR
STARTCHAR summation
ENCODING -1
SWIDTH 673 0
DWIDTH 24 0
BBX 23 33 0 -7
BITMAP
7FFFFE
7FFFFE
7FFFFE
7C0000
3E0000
1F0000
0F8000
07C000
03E000
01F000
00F800
00FC00
007C00
003E00
001F00
000F80
000F80
001F00
003E00
003C00
007C00
00F800
01F000
03E000
07C000
0F8000
1F0000
3F0000
3E0000
7C0000
FFFFFE
FFFFFE
FFFFFE
ENDCHAR
STARTCHAR product
ENCODING -1
SWIDTH 756 0
DWIDTH 27 0
BBX 22 33 3 -7
BITMAP
FFFFFC
FFFFFC
FFFFFC
F0003C
F0003C
F0003C
F0003C
F0003C
F0003C
F0003C
F0003C
F0003C
F0003C
F0003C
F0003C
F0003C
F0003C
F0003C
F0003C
F0003C
F0003C
F0003C
F0003C
F0003C
F0003C
F0003C
F0003C
F0003C
F0003C
F0003C
F0003C
F0003C
F0003C
ENDCHAR
STARTCHAR pi
ENCODING -1
SWIDTH 588 0
DWIDTH 21 0
BBX 22 19 -1 0
BITMAP
1FFFFC
7FFFFC
7FFFFC
F381C0
E381C0
0381C0
0383C0
078380
070380
070380
070380
0F0700
0E0700
0E0700
0E0700
0E0700
1E07E0
1C07E0
1C01E0
ENDCHAR
STARTCHAR integral
ENCODING -1
SWIDTH 520 0
DWIDTH 19 0
BBX 18 34 1 -7
BITMAP
000F80
001FC0
003BC0
0073C0
007380
00F000
00F000
00E000
00E000
00E000
01E000
01E000
01E000
01E000
01E000
01E000
01E000
01E000
01E000
01E000
01E000
01E000
01E000
01E000
01C000
01C000
01C000
03C000
03C000
738000
F38000
F70000
FE0000
7C0000
ENDCHAR
STARTCHAR Omega
ENCODING -1
SWIDTH 764 0
DWIDTH 28 0
BBX 24 26 2 0
BITMAP
00FF00
03FFC0
0FFFF0
1F81F8
3E007C
3C003C
78001E
78001E
F8001F
F0000F
F0000F
F0000F
F0000F
F0000F
F0000F
F0000F
78001E
78001E
3C003C
3C003C
1E0078
0F00F0
0781E0
FFC3FF
FFC3FF
FFC3FF
ENDCHAR
STARTCHAR radical
ENCODING -1
SWIDTH 637 0
DWIDTH 23 0
BBX 22 30 1 -1
BITMAP
00003C
00003C
000030
000060
000060
000060
0000C0
0000C0
0001C0
000180
000180
000300
080300
780300
FC0600
1C0600
1E0E00
0E0C00
0E0C00
0F1800
071800
071800
03B000
03B000
03F000
01E000
01E000
01C000
00C000
00C000
ENDCHAR
STARTCHAR florin
ENCODING -1
SWIDTH 636 0
DWIDTH 23 0
BBX 22 34 1 -7
BITMAP
0000F8
0003FC
0007FC
000784
000F00
000F00
000F00
000F00
001F00
001F00
001E00
001E00
03FFF0
03FFF0
03FFF0
003E00
003C00
003C00
007C00
007C00
007800
007800
00F800
00F000
00F000
00F000
00F000
01E000
01E000
03E000
87C000
FFC000
FF8000
7E0000
ENDCHAR
STARTCHAR approxequal
ENCODING -1
SWIDTH 837 0
DWIDTH 30 0
BBX 23 12 4 6
BITMAP
0FC002
7FF81E
FFFFFE
F07FFC
C007E0
000000
000000
0FC006
7FF81E
FFFFFE
F07FFC
C007E0
ENDCHAR
STARTCHAR Delta
ENCODING -1
SWIDTH 668 0
DWIDTH 24 0
BBX 24 26 0 0
BITMAP
003C00
007C00
007E00
007E00
00FF00
00E700
01E700
01E780
01C380
03C3C0
0383C0
0381C0
0781E0
0700E0
0F00F0
0F00F0
0E0070
1E0078
1C0038
3C0038
3C003C
38001C
78001E
7FFFFE
7FFFFE
FFFFFF
ENDCHAR
STARTCHAR ellipsis
ENCODING -1
SWIDTH 1000 0
DWIDTH 36 0
BBX 28 4 4 0
BITMAP
F00F00F0
F00F00F0
F00F00F0
F00F00F0
ENDCHAR
STARTCHAR OE
ENCODING -1
SWIDTH 1069 0
DWIDTH 39 0
BBX 34 26 2 0
BITMAP
003FFFFFC0
01FFFFFFC0
07FFFFFFC0
0FE0780000
1F00780000
3E00780000
7C00780000
7800780000
7800780000
F000780000
F000780000
F0007FFF80
F0007FFF80
F0007FFF80
F000780000
F000780000
F000780000
7800780000
7800780000
7C00780000
3E00780000
1F00780000
0FE0780000
07FFFFFFC0
01FFFFFFC0
003FFFFFC0
ENDCHAR
STARTCHAR oe
ENCODING -1
SWIDTH 1022 0
DWIDTH 37 0
BBX 32 20 2 0
BITMAP
03F007E0
0FFC3FF8
3FFE7FFC
3E1FF83E
7C0FF01E
7807E01E
F807C00F
F003C00F
F003FFFF
F003FFFF
F003FFFF
F003C000
F003C000
F007E000
7807E000
7C0FF002
3E1FFC0E
3FFE7FFE
0FFC1FFC
03F007F0
ENDCHAR
STARTCHAR endash
ENCODING -1
SWIDTH 500 0
DWIDTH 18 0
BBX 18 3 0 8
BITMAP
FFFFC0
FFFFC0
FFFFC0
ENDCHAR
STARTCHAR emdash
ENCODING -1
SWIDTH 1000 0
DWIDTH 36 0
BBX 36 3 0 8
BITMAP
FFFFFFFFF0
FFFFFFFFF0
FFFFFFFFF0
ENDCHAR
STARTCHAR quotedblleft
ENCODING -1
SWIDTH 518 0
DWIDTH 19 0
BBX 13 9 3 17
BITMAP
1818
3838
3838
7070
7070
F0F0
F0F0
F0F0
F0F0
ENDCHAR
STARTCHAR quotedblright
ENCODING -1
SWIDTH 518 0
DWIDTH 19 0
BBX 13 9 4 17
BITMAP
7878
7878
7878
7878
7070
7070
E0E0
E0E0
C0C0
ENDCHAR
STARTCHAR quoteleft
ENCODING -1
SWIDTH 317 0
DWIDTH 11 0
BBX 5 9 3 17
BITMAP
18
38
38
70
70
F0
F0
F0
F0
ENDCHAR
STARTCHAR quoteright
ENCODING -1
SWIDTH 317 0
DWIDTH 11 0
BBX 5 9 4 17
BITMAP
78
78
78
78
70
70
E0
E0
C0
ENDCHAR
STARTCHAR lozenge
ENCODING -1
SWIDTH 494 0
DWIDTH 18 0
BBX 18 37 0 -8
BITMAP
008000
00C000
00C000
01E000
01E000
033000
033000
061800
061800
0C0C00
0C0C00
180600
180600
380700
300300
700380
600180
E001C0
C000C0
600180
600180
700380
300300
300300
180600
180600
0C0C00
0C0C00
061800
061800
033000
033000
01E000
01E000
00C000
00C000
008000
ENDCHAR
STARTCHAR Ydieresis
ENCODING -1
SWIDTH 610 0
DWIDTH 22 0
BBX 22 34 0 0
BITMAP
03C780
03C780
03C780
03C780
000000
000000
000000
000000
F8007C
7C00F8
3C00F0
3E01F0
1F03E0
0F03C0
0F87C0
07CF80
03CF00
03FF00
01FE00
00FC00
00FC00
007800
007800
007800
007800
007800
007800
007800
007800
007800
007800
007800
007800
007800
ENDCHAR
STARTCHAR fraction
ENCODING -1
SWIDTH 166 0
DWIDTH 6 0
BBX 19 26 -7 0
BITMAP
0000E0
0000C0
000180
000380
000300
000700
000E00
000C00
001C00
001800
003000
007000
006000
00C000
01C000
018000
030000
070000
060000
0E0000
1C0000
180000
380000
300000
600000
E00000
ENDCHAR
STARTCHAR guilsinglleft
ENCODING -1
SWIDTH 399 0
DWIDTH 14 0
BBX 8 16 3 3
BITMAP
01
03
07
0F
1F
3C
78
F0
F0
78
3C
1F
0F
07
03
01
ENDCHAR
STARTCHAR guilsinglright
ENCODING -1
SWIDTH 399 0
DWIDTH 14 0
BBX 8 16 3 3
BITMAP
80
C0
E0
F0
F8
3C
1E
0F
0F
1E
3C
F8
F0
E0
C0
80
ENDCHAR
STARTCHAR fi
ENCODING -1
SWIDTH 629 0
DWIDTH 23 0
BBX 18 27 1 0
BITMAP
03FBC0
07FBC0
0FFBC0
1F03C0
1E0000
1E0000
1E0000
FFFFC0
FFFFC0
FFFFC0
1E03C0
1E03C0
1E03C0
1E03C0
1E03C0
1E03C0
1E03C0
1E03C0
1E03C0
1E03C0
1E03C0
1E03C0
1E03C0
1E03C0
1E03C0
1E03C0
1E03C0
ENDCHAR
STARTCHAR fl
ENCODING -1
SWIDTH 629 0
DWIDTH 23 0
BBX 18 27 1 0
BITMAP
03FFC0
07FFC0
0FFFC0
1F03C0
1E03C0
1E03C0
1E03C0
FFF3C0
FFF3C0
FFF3C0
1E03C0
1E03C0
1E03C0
1E03C0
1E03C0
1E03C0
1E03C0
1E03C0
1E03C0
1E03C0
1E03C0
1E03C0
1E03C0
1E03C0
1E03C0
1E03C0
1E03C0
ENDCHAR
STARTCHAR daggerdbl
ENCODING -1
SWIDTH 500 0
DWIDTH 18 0
BBX 15 29 1 -3
BITMAP
0380
0380
0380
0380
0380
0380
0380
FFFE
FFFE
FFFE
0380
0380
0380
0380
0380
0380
0380
0380
0380
FFFE
FFFE
FFFE
0380
0380
0380
0380
0380
0380
0380
ENDCHAR
STARTCHAR quotesinglbase
ENCODING -1
SWIDTH 317 0
DWIDTH 11 0
BBX 5 9 4 -5
BITMAP
78
78
78
78
70
70
E0
E0
C0
ENDCHAR
STARTCHAR quotedblbase
ENCODING -1
SWIDTH 518 0
DWIDTH 19 0
BBX 13 9 4 -5
BITMAP
7878
7878
7878
7878
7070
7070
E0E0
E0E0
C0C0
ENDCHAR
STARTCHAR perthousand
ENCODING -1
SWIDTH 1341 0
DWIDTH 48 0
BBX 44 26 2 0
BITMAP
1F8003000000
3FC007000000
79E006000000
70E00C000000
E0701C000000
E07018000000
E07030000000
E07070000000
E07060000000
E070C0000000
70E1C0000000
79E180000000
3FC387E01F80
1F870FF03FC0
00061E7879E0
000E1C3870E0
000C381CE070
0018381CE070
0038381CE070
0030381CE070
0060381CE070
00E0381CE070
00C01C3870E0
01801E7879E0
03800FF03FC0
030007E01F80
ENDCHAR
STARTCHAR dotlessi
ENCODING -1
SWIDTH 277 0
DWIDTH 10 0
BBX 4 20 3 0
BITMAP
F0
F0
F0
F0
F0
F0
F0
F0
F0
F0
F0
F0
F0
F0
F0
F0
F0
F0
F0
F0
ENDCHAR
STARTCHAR circumflex
ENCODING -1
SWIDTH 500 0
DWIDTH 18 0
BBX 11 7 3 22
BITMAP
0E00
1F00
1B00
3B80
71C0
60C0
E0E0
ENDCHAR
STARTCHAR tilde
ENCODING -1
SWIDTH 500 0
DWIDTH 18 0
BBX 12 5 3 23
BITMAP
3830
7E30
EF70
C7E0
C1C0
ENDCHAR
STARTCHAR breve
ENCODING -1
SWIDTH 500 0
DWIDTH 18 0
BBX 11 6 4 23
BITMAP
C060
C0E0
E0E0
7FC0
3F80
1F00
ENDCHAR
STARTCHAR dotaccent
ENCODING -1
SWIDTH 500 0
DWIDTH 18 0
BBX 4 4 7 23
BITMAP
F0
F0
F0
F0
ENDCHAR
STARTCHAR ring
ENCODING -1
SWIDTH 500 0
DWIDTH 18 0
BBX 10 10 4 22
BITMAP
1E00
7F80
6180
C0C0
C0C0
C0C0
C0C0
6180
7F80
1E00
ENDCHAR
STARTCHAR hungarumlaut
ENCODING -1
SWIDTH 500 0
DWIDTH 18 0
BBX 12 7 4 22
BITMAP
1C70
38E0
39C0
71C0
7380
6300
E700
ENDCHAR
STARTCHAR ogonek
ENCODING -1
SWIDTH 500 0
DWIDTH 18 0
BBX 7 7 6 -7
BITMAP
30
60
E0
E2
FE
FE
3E
ENDCHAR
STARTCHAR caron
ENCODING -1
SWIDTH 500 0
DWIDTH 18 0
BBX 11 7 3 22
BITMAP
E0E0
60C0
71C0
3B80
1B00
1F00
0E00
ENDCHAR
STARTCHAR Lslash
ENCODING -1
SWIDTH 562 0
DWIDTH 20 0
BBX 20 26 0 0
BITMAP
0F0000
0F0000
0F0000
0F0000
0F0000
0F0000
0F0000
0F0400
0F1E00
0F3C00
0FF800
0FE000
0FC000
0F0000
3F0000
7F0000
EF0000
4F0000
0F0000
0F0000
0F0000
0F0000
0F0000
0FFFF0
0FFFF0
0FFFF0
ENDCHAR
STARTCHAR lslash
ENCODING -1
SWIDTH 284 0
DWIDTH 10 0
BBX 12 27 0 0
BITMAP
0F00
0F00
0F00
0F00
0F00
0F00
0F00
0F00
0F00
0F20
0FF0
0FE0
0F80
1F00
7F00
FF00
4F00
0F00
0F00
0F00
0F00
0F00
0F00
0F00
0F00
0F00
0F00
ENDCHAR
STARTCHAR Scaron
ENCODING -1
SWIDTH 634 0
DWIDTH 23 0
BBX 18 34 2 0
BITMAP
0E0E00
071C00
03B800
01F000
01F000
000000
000000
000000
07FC00
1FFF00
3FFF00
7C0300
F80000
F00000
F00000
F00000
F80000
FE0000
7FE000
3FFC00
1FFF00
03FF80
003F80
0007C0
0007C0
0003C0
0003C0
0003C0
0003C0
800780
F01F80
FFFF00
FFFE00
3FF800
ENDCHAR
STARTCHAR scaron
ENCODING -1
SWIDTH 520 0
DWIDTH 19 0
BBX 15 29 2 0
BITMAP
7070
3060
38E0
1DC0
0D80
0F80
0700
0000
0000
0FF0
3FFC
7FFC
FC0C
F000
F000
F000
FC00
7FC0
1FF0
03FC
007C
001E
001E
001E
801E
E07C
FFFC
7FF8
0FE0
ENDCHAR
STARTCHAR Zcaron
ENCODING -1
SWIDTH 685 0
DWIDTH 25 0
BBX 21 34 2 0
BITMAP
070700
038E00
01DC00
00F800
00F800
000000
000000
000000
FFFFF0
FFFFF0
FFFFF0
0003E0
0003E0
0007C0
000F80
001F00
001F00
003E00
007C00
007C00
00F800
01F000
03E000
03E000
07C000
0F8000
1F0000
1F0000
3E0000
7C0000
7C0000
FFFFF8
FFFFF8
FFFFF8
ENDCHAR
STARTCHAR zcaron
ENCODING -1
SWIDTH 524 0
DWIDTH 19 0
BBX 16 29 2 0
BITMAP
7070
3060
38E0
1DC0
0D80
0F80
0700
0000
0000
FFFF
FFFF
FFFF
001F
003E
007C
00F8
01F8
01F0
03E0
07C0
0FC0
0F80
1F00
3E00
7E00
FC00
FFFF
FFFF
FFFF
ENDCHAR
STARTCHAR minus
ENCODING -1
SWIDTH 837 0
DWIDTH 30 0
BBX 23 3 4 10
BITMAP
FFFFFE
FFFFFE
FFFFFE
ENDCHAR
STARTCHAR Gbreve
ENCODING -1
SWIDTH 774 0
DWIDTH 28 0
BBX 23 34 2 0
BITMAP
0180C0
01C1C0
00FF80
007E00
000000
000000
000000
000000
007F80
03FFF0
0FFFF8
1FC07C
3F001C
3C000C
7C0004
780000
780000
F00000
F00000
F00000
F007FE
F007FE
F007FE
F0001E
F0001E
78001E
78001E
7C001E
3C001E
1E001E
1FC07E
07FFFC
03FFF0
007F80
ENDCHAR
STARTCHAR gbreve
ENCODING -1
SWIDTH 634 0
DWIDTH 23 0
BBX 18 36 2 -7
BITMAP
0C0600
0C0E00
0E0E00
07FC00
03F800
01F000
000000
000000
000000
07E3C0
1FFBC0
3FFFC0
3E1FC0
7C0FC0
7807C0
F007C0
F003C0
F003C0
F003C0
F003C0
F003C0
F003C0
F007C0
7807C0
7C0FC0
3E1FC0
3FFFC0
1FFBC0
07E3C0
0003C0
000780
200F80
381F80
3FFF00
1FFE00
07F000
ENDCHAR
STARTCHAR Idotaccent
ENCODING -1
SWIDTH 294 0
DWIDTH 11 0
BBX 4 34 3 0
BITMAP
F0
F0
F0
F0
00
00
00
00
F0
F0
F0
F0
F0
F0
F0
F0
F0
F0
F0
F0
F0
F0
F0
F0
F0
F0
F0
F0
F0
F0
F0
F0
F0
F0
ENDCHAR
STARTCHAR Scedilla
ENCODING -1
SWIDTH 634 0
DWIDTH 23 0
BBX 18 33 2 -7
BITMAP
07FC00
1FFF00
3FFF00
7C0300
F80000
F00000
F00000
F00000
F80000
FE0000
7FE000
3FFC00
1FFF00
03FF80
003F80
0007C0
0007C0
0003C0
0003C0
0003C0
0003C0
800780
F01F80
FFFF00
FFFE00
3FF800
00C000
006000
007000
047000
07F000
07F000
07E000
ENDCHAR
STARTCHAR scedilla
ENCODING -1
SWIDTH 520 0
DWIDTH 19 0
BBX 15 27 2 -7
BITMAP
0FF0
3FFC
7FFC
FC0C
F000
F000
F000
FC00
7FC0
1FF0
03FC
007C
001E
001E
001E
801E
E07C
FFFC
7FF8
0FE0
0300
0180
01C0
11C0
1FC0
1FC0
1F80
ENDCHAR
STARTCHAR Cacute
ENCODING -1
SWIDTH 698 0
DWIDTH 25 0
BBX 21 34 2 0
BITMAP
000700
000F00
000E00
001C00
003800
000000
000000
000000
007F00
03FFE0
0FFFF0
1FC0F8
3F0038
3C0018
7C0000
780000
780000
F00000
F00000
F00000
F00000
F00000
F00000
F00000
F00000
780000
780000
7C0000
3C0018
3F0038
1FC0F8
0FFFF0
03FFE0
00FF00
ENDCHAR
STARTCHAR cacute
ENCODING -1
SWIDTH 549 0
DWIDTH 20 0
BBX 16 29 2 0
BITMAP
001E
001C
0038
0070
0070
00E0
01C0
0000
0000
01F8
0FFE
1FFF
3F07
7C01
7800
F800
F000
F000
F000
F000
F000
F000
F800
7800
7C01
3F07
1FFF
0FFE
03F8
ENDCHAR
STARTCHAR Ccaron
ENCODING -1
SWIDTH 698 0
DWIDTH 25 0
BBX 21 34 2 0
BITMAP
01C1C0
00E380
007700
003E00
003E00
000000
000000
000000
007F00
03FFE0
0FFFF0
1FC0F8
3F0038
3C0018
7C0000
780000
780000
F00000
F00000
F00000
F00000
F00000
F00000
F00000
F00000
780000
780000
7C0000
3C0018
3F0038
1FC0F8
0FFFF0
03FFE0
00FF00
ENDCHAR
STARTCHAR ccaron
ENCODING -1
SWIDTH 549 0
DWIDTH 20 0
BBX 16 29 2 0
BITMAP
1C1C
0C18
0E38
0770
0360
03E0
01C0
0000
0000
01F8
0FFE
1FFF
3F07
7C01
7800
F800
F000
F000
F000
F000
F000
F000
F800
7800
7C01
3F07
1FFF
0FFE
03F8
ENDCHAR
STARTCHAR dcroat
ENCODING -1
SWIDTH 634 0
DWIDTH 23 0
BBX 21 27 2 0
BITMAP
0003C0
0003C0
0003C0
00FFF8
00FFF8
0003C0
0003C0
07E3C0
1FFBC0
3FFFC0
3E1FC0
7C0FC0
7807C0
F007C0
F003C0
F003C0
F003C0
F003C0
F003C0
F003C0
F007C0
7807C0
7C0FC0
3E1FC0
3FFFC0
1FFBC0
07E3C0
ENDCHAR
STARTCHAR periodcentered
ENCODING -1
SWIDTH 317 0
DWIDTH 11 0
BBX 4 4 4 11
BITMAP
F0
F0
F0
F0
ENDCHAR
STARTCHAR Euro
ENCODING -1
SWIDTH 636 0
DWIDTH 23 0
BBX 20 26 0 0
BITMAP
003F00
00FFC0
01FFE0
03E0F0
07C030
0F8010
0F0000
0F0000
1E0000
7FFF80
FFFF00
1E0000
1E0000
1E0000
1E0000
7FFE00
FFFC00
1E0000
0F0000
0F0000
0F8010
07C030
03E0F0
01FFE0
00FFC0
003F00
ENDCHAR
STARTCHAR c6459
ENCODING -1
SWIDTH 500 0
DWIDTH 18 0
BBX 11 4 4 23
BITMAP
F1E0
F1E0
F1E0
F1E0
ENDCHAR
STARTCHAR c6460
ENCODING -1
SWIDTH 500 0
DWIDTH 18 0
BBX 6 5 7 22
BITMAP
1C
3C
38
70
E0
ENDCHAR
STARTCHAR c6461
ENCODING -1
SWIDTH 500 0
DWIDTH 18 0
BBX 12 4 3 23
BITMAP
3830
7E30
C7E0
C1C0
ENDCHAR
STARTCHAR c6462
ENCODING -1
SWIDTH 500 0
DWIDTH 18 0
BBX 6 5 5 22
BITMAP
F0
70
38
1C
0C
ENDCHAR
STARTCHAR c6463
ENCODING -1
SWIDTH 500 0
DWIDTH 18 0
BBX 11 5 4 22
BITMAP
1F00
1F00
3B80
71C0
E0E0
ENDCHAR
STARTCHAR c6466
ENCODING -1
SWIDTH 500 0
DWIDTH 18 0
BBX 11 5 4 22
BITMAP
E0E0
71C0
3B80
1F00
1F00
ENDCHAR
STARTCHAR c6467
ENCODING -1
SWIDTH 400 0
DWIDTH 14 0
BBX 12 15 1 11
BITMAP
01C0
03C0
07C0
0DC0
09C0
19C0
31C0
21C0
61C0
C1C0
FFF0
FFF0
01C0
01C0
01C0
ENDCHAR
STARTCHAR c6468
ENCODING -1
SWIDTH 500 0
DWIDTH 18 0
BBX 11 4 4 23
BITMAP
C060
E0E0
7FC0
3F00
ENDCHAR
STARTCHAR c6469
ENCODING -1
SWIDTH 500 0
DWIDTH 18 0
BBX 4 4 7 23
BITMAP
F0
F0
F0
F0
ENDCHAR
ENDFONT
